%TF.GenerationSoftware,KiCad,Pcbnew,9.0.7-9.0.7~ubuntu24.04.1*%
%TF.CreationDate,2026-02-28T14:15:44+03:00*%
%TF.ProjectId,Kiicad_project,4b696963-6164-45f7-9072-6f6a6563742e,rev?*%
%TF.SameCoordinates,Original*%
%TF.FileFunction,Legend,Top*%
%TF.FilePolarity,Positive*%
%FSLAX46Y46*%
G04 Gerber Fmt 4.6, Leading zero omitted, Abs format (unit mm)*
G04 Created by KiCad (PCBNEW 9.0.7-9.0.7~ubuntu24.04.1) date 2026-02-28 14:15:44*
%MOMM*%
%LPD*%
G01*
G04 APERTURE LIST*
%ADD10C,0.150000*%
%ADD11C,0.120000*%
%ADD12C,0.100000*%
G04 APERTURE END LIST*
D10*
X70208333Y-69379819D02*
X69875000Y-68903628D01*
X69636905Y-69379819D02*
X69636905Y-68379819D01*
X69636905Y-68379819D02*
X70017857Y-68379819D01*
X70017857Y-68379819D02*
X70113095Y-68427438D01*
X70113095Y-68427438D02*
X70160714Y-68475057D01*
X70160714Y-68475057D02*
X70208333Y-68570295D01*
X70208333Y-68570295D02*
X70208333Y-68713152D01*
X70208333Y-68713152D02*
X70160714Y-68808390D01*
X70160714Y-68808390D02*
X70113095Y-68856009D01*
X70113095Y-68856009D02*
X70017857Y-68903628D01*
X70017857Y-68903628D02*
X69636905Y-68903628D01*
X70589286Y-68475057D02*
X70636905Y-68427438D01*
X70636905Y-68427438D02*
X70732143Y-68379819D01*
X70732143Y-68379819D02*
X70970238Y-68379819D01*
X70970238Y-68379819D02*
X71065476Y-68427438D01*
X71065476Y-68427438D02*
X71113095Y-68475057D01*
X71113095Y-68475057D02*
X71160714Y-68570295D01*
X71160714Y-68570295D02*
X71160714Y-68665533D01*
X71160714Y-68665533D02*
X71113095Y-68808390D01*
X71113095Y-68808390D02*
X70541667Y-69379819D01*
X70541667Y-69379819D02*
X71160714Y-69379819D01*
X52289104Y-81844419D02*
X52289104Y-81911763D01*
X52289104Y-81911763D02*
X52221760Y-82046450D01*
X52221760Y-82046450D02*
X52154417Y-82113793D01*
X52154417Y-82113793D02*
X52019730Y-82181137D01*
X52019730Y-82181137D02*
X51885043Y-82181137D01*
X51885043Y-82181137D02*
X51784028Y-82147465D01*
X51784028Y-82147465D02*
X51615669Y-82046450D01*
X51615669Y-82046450D02*
X51514654Y-81945435D01*
X51514654Y-81945435D02*
X51413638Y-81777076D01*
X51413638Y-81777076D02*
X51379967Y-81676061D01*
X51379967Y-81676061D02*
X51379967Y-81541374D01*
X51379967Y-81541374D02*
X51447310Y-81406687D01*
X51447310Y-81406687D02*
X51514654Y-81339343D01*
X51514654Y-81339343D02*
X51649341Y-81272000D01*
X51649341Y-81272000D02*
X51716684Y-81272000D01*
X53029882Y-81238328D02*
X52625821Y-81642389D01*
X52827852Y-81440358D02*
X52120745Y-80733252D01*
X52120745Y-80733252D02*
X52154417Y-80901610D01*
X52154417Y-80901610D02*
X52154417Y-81036297D01*
X52154417Y-81036297D02*
X52120745Y-81137313D01*
X52659493Y-80329190D02*
X52659493Y-80261847D01*
X52659493Y-80261847D02*
X52693165Y-80160832D01*
X52693165Y-80160832D02*
X52861524Y-79992473D01*
X52861524Y-79992473D02*
X52962539Y-79958801D01*
X52962539Y-79958801D02*
X53029883Y-79958801D01*
X53029883Y-79958801D02*
X53130898Y-79992473D01*
X53130898Y-79992473D02*
X53198241Y-80059816D01*
X53198241Y-80059816D02*
X53265585Y-80194503D01*
X53265585Y-80194503D02*
X53265585Y-81002625D01*
X53265585Y-81002625D02*
X53703318Y-80564893D01*
X59552887Y-71836411D02*
X59485543Y-71836411D01*
X59485543Y-71836411D02*
X59350856Y-71769067D01*
X59350856Y-71769067D02*
X59283513Y-71701724D01*
X59283513Y-71701724D02*
X59216169Y-71567037D01*
X59216169Y-71567037D02*
X59216169Y-71432350D01*
X59216169Y-71432350D02*
X59249841Y-71331335D01*
X59249841Y-71331335D02*
X59350856Y-71162976D01*
X59350856Y-71162976D02*
X59451871Y-71061961D01*
X59451871Y-71061961D02*
X59620230Y-70960945D01*
X59620230Y-70960945D02*
X59721245Y-70927274D01*
X59721245Y-70927274D02*
X59855932Y-70927274D01*
X59855932Y-70927274D02*
X59990619Y-70994617D01*
X59990619Y-70994617D02*
X60057963Y-71061961D01*
X60057963Y-71061961D02*
X60125306Y-71196648D01*
X60125306Y-71196648D02*
X60125306Y-71263991D01*
X60428352Y-71432350D02*
X60899757Y-71903754D01*
X60899757Y-71903754D02*
X59889604Y-72307815D01*
X61183333Y-74859580D02*
X61135714Y-74907200D01*
X61135714Y-74907200D02*
X60992857Y-74954819D01*
X60992857Y-74954819D02*
X60897619Y-74954819D01*
X60897619Y-74954819D02*
X60754762Y-74907200D01*
X60754762Y-74907200D02*
X60659524Y-74811961D01*
X60659524Y-74811961D02*
X60611905Y-74716723D01*
X60611905Y-74716723D02*
X60564286Y-74526247D01*
X60564286Y-74526247D02*
X60564286Y-74383390D01*
X60564286Y-74383390D02*
X60611905Y-74192914D01*
X60611905Y-74192914D02*
X60659524Y-74097676D01*
X60659524Y-74097676D02*
X60754762Y-74002438D01*
X60754762Y-74002438D02*
X60897619Y-73954819D01*
X60897619Y-73954819D02*
X60992857Y-73954819D01*
X60992857Y-73954819D02*
X61135714Y-74002438D01*
X61135714Y-74002438D02*
X61183333Y-74050057D01*
X62040476Y-74288152D02*
X62040476Y-74954819D01*
X61802381Y-73907200D02*
X61564286Y-74621485D01*
X61564286Y-74621485D02*
X62183333Y-74621485D01*
X61234580Y-67791666D02*
X61282200Y-67839285D01*
X61282200Y-67839285D02*
X61329819Y-67982142D01*
X61329819Y-67982142D02*
X61329819Y-68077380D01*
X61329819Y-68077380D02*
X61282200Y-68220237D01*
X61282200Y-68220237D02*
X61186961Y-68315475D01*
X61186961Y-68315475D02*
X61091723Y-68363094D01*
X61091723Y-68363094D02*
X60901247Y-68410713D01*
X60901247Y-68410713D02*
X60758390Y-68410713D01*
X60758390Y-68410713D02*
X60567914Y-68363094D01*
X60567914Y-68363094D02*
X60472676Y-68315475D01*
X60472676Y-68315475D02*
X60377438Y-68220237D01*
X60377438Y-68220237D02*
X60329819Y-68077380D01*
X60329819Y-68077380D02*
X60329819Y-67982142D01*
X60329819Y-67982142D02*
X60377438Y-67839285D01*
X60377438Y-67839285D02*
X60425057Y-67791666D01*
X61329819Y-66839285D02*
X61329819Y-67410713D01*
X61329819Y-67124999D02*
X60329819Y-67124999D01*
X60329819Y-67124999D02*
X60472676Y-67220237D01*
X60472676Y-67220237D02*
X60567914Y-67315475D01*
X60567914Y-67315475D02*
X60615533Y-67410713D01*
X69833333Y-82609580D02*
X69785714Y-82657200D01*
X69785714Y-82657200D02*
X69642857Y-82704819D01*
X69642857Y-82704819D02*
X69547619Y-82704819D01*
X69547619Y-82704819D02*
X69404762Y-82657200D01*
X69404762Y-82657200D02*
X69309524Y-82561961D01*
X69309524Y-82561961D02*
X69261905Y-82466723D01*
X69261905Y-82466723D02*
X69214286Y-82276247D01*
X69214286Y-82276247D02*
X69214286Y-82133390D01*
X69214286Y-82133390D02*
X69261905Y-81942914D01*
X69261905Y-81942914D02*
X69309524Y-81847676D01*
X69309524Y-81847676D02*
X69404762Y-81752438D01*
X69404762Y-81752438D02*
X69547619Y-81704819D01*
X69547619Y-81704819D02*
X69642857Y-81704819D01*
X69642857Y-81704819D02*
X69785714Y-81752438D01*
X69785714Y-81752438D02*
X69833333Y-81800057D01*
X70214286Y-81800057D02*
X70261905Y-81752438D01*
X70261905Y-81752438D02*
X70357143Y-81704819D01*
X70357143Y-81704819D02*
X70595238Y-81704819D01*
X70595238Y-81704819D02*
X70690476Y-81752438D01*
X70690476Y-81752438D02*
X70738095Y-81800057D01*
X70738095Y-81800057D02*
X70785714Y-81895295D01*
X70785714Y-81895295D02*
X70785714Y-81990533D01*
X70785714Y-81990533D02*
X70738095Y-82133390D01*
X70738095Y-82133390D02*
X70166667Y-82704819D01*
X70166667Y-82704819D02*
X70785714Y-82704819D01*
X68083333Y-64904819D02*
X67750000Y-64428628D01*
X67511905Y-64904819D02*
X67511905Y-63904819D01*
X67511905Y-63904819D02*
X67892857Y-63904819D01*
X67892857Y-63904819D02*
X67988095Y-63952438D01*
X67988095Y-63952438D02*
X68035714Y-64000057D01*
X68035714Y-64000057D02*
X68083333Y-64095295D01*
X68083333Y-64095295D02*
X68083333Y-64238152D01*
X68083333Y-64238152D02*
X68035714Y-64333390D01*
X68035714Y-64333390D02*
X67988095Y-64381009D01*
X67988095Y-64381009D02*
X67892857Y-64428628D01*
X67892857Y-64428628D02*
X67511905Y-64428628D01*
X68988095Y-63904819D02*
X68511905Y-63904819D01*
X68511905Y-63904819D02*
X68464286Y-64381009D01*
X68464286Y-64381009D02*
X68511905Y-64333390D01*
X68511905Y-64333390D02*
X68607143Y-64285771D01*
X68607143Y-64285771D02*
X68845238Y-64285771D01*
X68845238Y-64285771D02*
X68940476Y-64333390D01*
X68940476Y-64333390D02*
X68988095Y-64381009D01*
X68988095Y-64381009D02*
X69035714Y-64476247D01*
X69035714Y-64476247D02*
X69035714Y-64714342D01*
X69035714Y-64714342D02*
X68988095Y-64809580D01*
X68988095Y-64809580D02*
X68940476Y-64857200D01*
X68940476Y-64857200D02*
X68845238Y-64904819D01*
X68845238Y-64904819D02*
X68607143Y-64904819D01*
X68607143Y-64904819D02*
X68511905Y-64857200D01*
X68511905Y-64857200D02*
X68464286Y-64809580D01*
X57253755Y-89414456D02*
X56681336Y-89313441D01*
X56849694Y-89818517D02*
X56142588Y-89111410D01*
X56142588Y-89111410D02*
X56411962Y-88842036D01*
X56411962Y-88842036D02*
X56512977Y-88808364D01*
X56512977Y-88808364D02*
X56580320Y-88808364D01*
X56580320Y-88808364D02*
X56681336Y-88842036D01*
X56681336Y-88842036D02*
X56782351Y-88943051D01*
X56782351Y-88943051D02*
X56816023Y-89044067D01*
X56816023Y-89044067D02*
X56816023Y-89111410D01*
X56816023Y-89111410D02*
X56782351Y-89212425D01*
X56782351Y-89212425D02*
X56512977Y-89481799D01*
X56782351Y-88471647D02*
X57220084Y-88033914D01*
X57220084Y-88033914D02*
X57253755Y-88538990D01*
X57253755Y-88538990D02*
X57354771Y-88437975D01*
X57354771Y-88437975D02*
X57455786Y-88404303D01*
X57455786Y-88404303D02*
X57523129Y-88404303D01*
X57523129Y-88404303D02*
X57624145Y-88437975D01*
X57624145Y-88437975D02*
X57792503Y-88606334D01*
X57792503Y-88606334D02*
X57826175Y-88707349D01*
X57826175Y-88707349D02*
X57826175Y-88774693D01*
X57826175Y-88774693D02*
X57792503Y-88875708D01*
X57792503Y-88875708D02*
X57590473Y-89077738D01*
X57590473Y-89077738D02*
X57489458Y-89111410D01*
X57489458Y-89111410D02*
X57422114Y-89111410D01*
X58334819Y-71416666D02*
X57858628Y-71749999D01*
X58334819Y-71988094D02*
X57334819Y-71988094D01*
X57334819Y-71988094D02*
X57334819Y-71607142D01*
X57334819Y-71607142D02*
X57382438Y-71511904D01*
X57382438Y-71511904D02*
X57430057Y-71464285D01*
X57430057Y-71464285D02*
X57525295Y-71416666D01*
X57525295Y-71416666D02*
X57668152Y-71416666D01*
X57668152Y-71416666D02*
X57763390Y-71464285D01*
X57763390Y-71464285D02*
X57811009Y-71511904D01*
X57811009Y-71511904D02*
X57858628Y-71607142D01*
X57858628Y-71607142D02*
X57858628Y-71988094D01*
X57668152Y-70559523D02*
X58334819Y-70559523D01*
X57287200Y-70797618D02*
X58001485Y-71035713D01*
X58001485Y-71035713D02*
X58001485Y-70416666D01*
X52994846Y-68783748D02*
X52489770Y-69288824D01*
X52489770Y-69288824D02*
X52355083Y-69356168D01*
X52355083Y-69356168D02*
X52220396Y-69356168D01*
X52220396Y-69356168D02*
X52085709Y-69288824D01*
X52085709Y-69288824D02*
X52018365Y-69221481D01*
X53398907Y-69659214D02*
X52927503Y-70130618D01*
X53499923Y-69221481D02*
X52826488Y-69558198D01*
X52826488Y-69558198D02*
X53264220Y-69995931D01*
X60293333Y-80429580D02*
X60245714Y-80477200D01*
X60245714Y-80477200D02*
X60102857Y-80524819D01*
X60102857Y-80524819D02*
X60007619Y-80524819D01*
X60007619Y-80524819D02*
X59864762Y-80477200D01*
X59864762Y-80477200D02*
X59769524Y-80381961D01*
X59769524Y-80381961D02*
X59721905Y-80286723D01*
X59721905Y-80286723D02*
X59674286Y-80096247D01*
X59674286Y-80096247D02*
X59674286Y-79953390D01*
X59674286Y-79953390D02*
X59721905Y-79762914D01*
X59721905Y-79762914D02*
X59769524Y-79667676D01*
X59769524Y-79667676D02*
X59864762Y-79572438D01*
X59864762Y-79572438D02*
X60007619Y-79524819D01*
X60007619Y-79524819D02*
X60102857Y-79524819D01*
X60102857Y-79524819D02*
X60245714Y-79572438D01*
X60245714Y-79572438D02*
X60293333Y-79620057D01*
X61150476Y-79524819D02*
X60960000Y-79524819D01*
X60960000Y-79524819D02*
X60864762Y-79572438D01*
X60864762Y-79572438D02*
X60817143Y-79620057D01*
X60817143Y-79620057D02*
X60721905Y-79762914D01*
X60721905Y-79762914D02*
X60674286Y-79953390D01*
X60674286Y-79953390D02*
X60674286Y-80334342D01*
X60674286Y-80334342D02*
X60721905Y-80429580D01*
X60721905Y-80429580D02*
X60769524Y-80477200D01*
X60769524Y-80477200D02*
X60864762Y-80524819D01*
X60864762Y-80524819D02*
X61055238Y-80524819D01*
X61055238Y-80524819D02*
X61150476Y-80477200D01*
X61150476Y-80477200D02*
X61198095Y-80429580D01*
X61198095Y-80429580D02*
X61245714Y-80334342D01*
X61245714Y-80334342D02*
X61245714Y-80096247D01*
X61245714Y-80096247D02*
X61198095Y-80001009D01*
X61198095Y-80001009D02*
X61150476Y-79953390D01*
X61150476Y-79953390D02*
X61055238Y-79905771D01*
X61055238Y-79905771D02*
X60864762Y-79905771D01*
X60864762Y-79905771D02*
X60769524Y-79953390D01*
X60769524Y-79953390D02*
X60721905Y-80001009D01*
X60721905Y-80001009D02*
X60674286Y-80096247D01*
X56519820Y-62758333D02*
X57234105Y-62758333D01*
X57234105Y-62758333D02*
X57376962Y-62805952D01*
X57376962Y-62805952D02*
X57472201Y-62901190D01*
X57472201Y-62901190D02*
X57519820Y-63044047D01*
X57519820Y-63044047D02*
X57519820Y-63139285D01*
X56519820Y-62377380D02*
X56519820Y-61758333D01*
X56519820Y-61758333D02*
X56900772Y-62091666D01*
X56900772Y-62091666D02*
X56900772Y-61948809D01*
X56900772Y-61948809D02*
X56948391Y-61853571D01*
X56948391Y-61853571D02*
X56996010Y-61805952D01*
X56996010Y-61805952D02*
X57091248Y-61758333D01*
X57091248Y-61758333D02*
X57329343Y-61758333D01*
X57329343Y-61758333D02*
X57424581Y-61805952D01*
X57424581Y-61805952D02*
X57472201Y-61853571D01*
X57472201Y-61853571D02*
X57519820Y-61948809D01*
X57519820Y-61948809D02*
X57519820Y-62234523D01*
X57519820Y-62234523D02*
X57472201Y-62329761D01*
X57472201Y-62329761D02*
X57424581Y-62377380D01*
X83159580Y-83067857D02*
X83207200Y-83115476D01*
X83207200Y-83115476D02*
X83254819Y-83258333D01*
X83254819Y-83258333D02*
X83254819Y-83353571D01*
X83254819Y-83353571D02*
X83207200Y-83496428D01*
X83207200Y-83496428D02*
X83111961Y-83591666D01*
X83111961Y-83591666D02*
X83016723Y-83639285D01*
X83016723Y-83639285D02*
X82826247Y-83686904D01*
X82826247Y-83686904D02*
X82683390Y-83686904D01*
X82683390Y-83686904D02*
X82492914Y-83639285D01*
X82492914Y-83639285D02*
X82397676Y-83591666D01*
X82397676Y-83591666D02*
X82302438Y-83496428D01*
X82302438Y-83496428D02*
X82254819Y-83353571D01*
X82254819Y-83353571D02*
X82254819Y-83258333D01*
X82254819Y-83258333D02*
X82302438Y-83115476D01*
X82302438Y-83115476D02*
X82350057Y-83067857D01*
X83254819Y-82115476D02*
X83254819Y-82686904D01*
X83254819Y-82401190D02*
X82254819Y-82401190D01*
X82254819Y-82401190D02*
X82397676Y-82496428D01*
X82397676Y-82496428D02*
X82492914Y-82591666D01*
X82492914Y-82591666D02*
X82540533Y-82686904D01*
X83254819Y-81163095D02*
X83254819Y-81734523D01*
X83254819Y-81448809D02*
X82254819Y-81448809D01*
X82254819Y-81448809D02*
X82397676Y-81544047D01*
X82397676Y-81544047D02*
X82492914Y-81639285D01*
X82492914Y-81639285D02*
X82540533Y-81734523D01*
X60909580Y-76316666D02*
X60957200Y-76364285D01*
X60957200Y-76364285D02*
X61004819Y-76507142D01*
X61004819Y-76507142D02*
X61004819Y-76602380D01*
X61004819Y-76602380D02*
X60957200Y-76745237D01*
X60957200Y-76745237D02*
X60861961Y-76840475D01*
X60861961Y-76840475D02*
X60766723Y-76888094D01*
X60766723Y-76888094D02*
X60576247Y-76935713D01*
X60576247Y-76935713D02*
X60433390Y-76935713D01*
X60433390Y-76935713D02*
X60242914Y-76888094D01*
X60242914Y-76888094D02*
X60147676Y-76840475D01*
X60147676Y-76840475D02*
X60052438Y-76745237D01*
X60052438Y-76745237D02*
X60004819Y-76602380D01*
X60004819Y-76602380D02*
X60004819Y-76507142D01*
X60004819Y-76507142D02*
X60052438Y-76364285D01*
X60052438Y-76364285D02*
X60100057Y-76316666D01*
X61004819Y-75840475D02*
X61004819Y-75649999D01*
X61004819Y-75649999D02*
X60957200Y-75554761D01*
X60957200Y-75554761D02*
X60909580Y-75507142D01*
X60909580Y-75507142D02*
X60766723Y-75411904D01*
X60766723Y-75411904D02*
X60576247Y-75364285D01*
X60576247Y-75364285D02*
X60195295Y-75364285D01*
X60195295Y-75364285D02*
X60100057Y-75411904D01*
X60100057Y-75411904D02*
X60052438Y-75459523D01*
X60052438Y-75459523D02*
X60004819Y-75554761D01*
X60004819Y-75554761D02*
X60004819Y-75745237D01*
X60004819Y-75745237D02*
X60052438Y-75840475D01*
X60052438Y-75840475D02*
X60100057Y-75888094D01*
X60100057Y-75888094D02*
X60195295Y-75935713D01*
X60195295Y-75935713D02*
X60433390Y-75935713D01*
X60433390Y-75935713D02*
X60528628Y-75888094D01*
X60528628Y-75888094D02*
X60576247Y-75840475D01*
X60576247Y-75840475D02*
X60623866Y-75745237D01*
X60623866Y-75745237D02*
X60623866Y-75554761D01*
X60623866Y-75554761D02*
X60576247Y-75459523D01*
X60576247Y-75459523D02*
X60528628Y-75411904D01*
X60528628Y-75411904D02*
X60433390Y-75364285D01*
X66863095Y-68729819D02*
X66863095Y-69539342D01*
X66863095Y-69539342D02*
X66910714Y-69634580D01*
X66910714Y-69634580D02*
X66958333Y-69682200D01*
X66958333Y-69682200D02*
X67053571Y-69729819D01*
X67053571Y-69729819D02*
X67244047Y-69729819D01*
X67244047Y-69729819D02*
X67339285Y-69682200D01*
X67339285Y-69682200D02*
X67386904Y-69634580D01*
X67386904Y-69634580D02*
X67434523Y-69539342D01*
X67434523Y-69539342D02*
X67434523Y-68729819D01*
X68434523Y-69729819D02*
X67863095Y-69729819D01*
X68148809Y-69729819D02*
X68148809Y-68729819D01*
X68148809Y-68729819D02*
X68053571Y-68872676D01*
X68053571Y-68872676D02*
X67958333Y-68967914D01*
X67958333Y-68967914D02*
X67863095Y-69015533D01*
X64766666Y-84379819D02*
X64766666Y-85094104D01*
X64766666Y-85094104D02*
X64719047Y-85236961D01*
X64719047Y-85236961D02*
X64623809Y-85332200D01*
X64623809Y-85332200D02*
X64480952Y-85379819D01*
X64480952Y-85379819D02*
X64385714Y-85379819D01*
X65195238Y-84475057D02*
X65242857Y-84427438D01*
X65242857Y-84427438D02*
X65338095Y-84379819D01*
X65338095Y-84379819D02*
X65576190Y-84379819D01*
X65576190Y-84379819D02*
X65671428Y-84427438D01*
X65671428Y-84427438D02*
X65719047Y-84475057D01*
X65719047Y-84475057D02*
X65766666Y-84570295D01*
X65766666Y-84570295D02*
X65766666Y-84665533D01*
X65766666Y-84665533D02*
X65719047Y-84808390D01*
X65719047Y-84808390D02*
X65147619Y-85379819D01*
X65147619Y-85379819D02*
X65766666Y-85379819D01*
X74258333Y-71284580D02*
X74210714Y-71332200D01*
X74210714Y-71332200D02*
X74067857Y-71379819D01*
X74067857Y-71379819D02*
X73972619Y-71379819D01*
X73972619Y-71379819D02*
X73829762Y-71332200D01*
X73829762Y-71332200D02*
X73734524Y-71236961D01*
X73734524Y-71236961D02*
X73686905Y-71141723D01*
X73686905Y-71141723D02*
X73639286Y-70951247D01*
X73639286Y-70951247D02*
X73639286Y-70808390D01*
X73639286Y-70808390D02*
X73686905Y-70617914D01*
X73686905Y-70617914D02*
X73734524Y-70522676D01*
X73734524Y-70522676D02*
X73829762Y-70427438D01*
X73829762Y-70427438D02*
X73972619Y-70379819D01*
X73972619Y-70379819D02*
X74067857Y-70379819D01*
X74067857Y-70379819D02*
X74210714Y-70427438D01*
X74210714Y-70427438D02*
X74258333Y-70475057D01*
X74591667Y-70379819D02*
X75210714Y-70379819D01*
X75210714Y-70379819D02*
X74877381Y-70760771D01*
X74877381Y-70760771D02*
X75020238Y-70760771D01*
X75020238Y-70760771D02*
X75115476Y-70808390D01*
X75115476Y-70808390D02*
X75163095Y-70856009D01*
X75163095Y-70856009D02*
X75210714Y-70951247D01*
X75210714Y-70951247D02*
X75210714Y-71189342D01*
X75210714Y-71189342D02*
X75163095Y-71284580D01*
X75163095Y-71284580D02*
X75115476Y-71332200D01*
X75115476Y-71332200D02*
X75020238Y-71379819D01*
X75020238Y-71379819D02*
X74734524Y-71379819D01*
X74734524Y-71379819D02*
X74639286Y-71332200D01*
X74639286Y-71332200D02*
X74591667Y-71284580D01*
X54366169Y-77624693D02*
X54298825Y-77624693D01*
X54298825Y-77624693D02*
X54164138Y-77557349D01*
X54164138Y-77557349D02*
X54096795Y-77490006D01*
X54096795Y-77490006D02*
X54029451Y-77355319D01*
X54029451Y-77355319D02*
X54029451Y-77220632D01*
X54029451Y-77220632D02*
X54063123Y-77119617D01*
X54063123Y-77119617D02*
X54164138Y-76951258D01*
X54164138Y-76951258D02*
X54265153Y-76850243D01*
X54265153Y-76850243D02*
X54433512Y-76749227D01*
X54433512Y-76749227D02*
X54534527Y-76715556D01*
X54534527Y-76715556D02*
X54669214Y-76715556D01*
X54669214Y-76715556D02*
X54803901Y-76782899D01*
X54803901Y-76782899D02*
X54871245Y-76850243D01*
X54871245Y-76850243D02*
X54938588Y-76984930D01*
X54938588Y-76984930D02*
X54938588Y-77052273D01*
X54972260Y-78365471D02*
X54568199Y-77961410D01*
X54770230Y-78163441D02*
X55477336Y-77456334D01*
X55477336Y-77456334D02*
X55308978Y-77490006D01*
X55308978Y-77490006D02*
X55174291Y-77490006D01*
X55174291Y-77490006D02*
X55073275Y-77456334D01*
X55915069Y-77894067D02*
X56352802Y-78331800D01*
X56352802Y-78331800D02*
X55847726Y-78365472D01*
X55847726Y-78365472D02*
X55948741Y-78466487D01*
X55948741Y-78466487D02*
X55982413Y-78567502D01*
X55982413Y-78567502D02*
X55982413Y-78634846D01*
X55982413Y-78634846D02*
X55948741Y-78735861D01*
X55948741Y-78735861D02*
X55780382Y-78904220D01*
X55780382Y-78904220D02*
X55679367Y-78937891D01*
X55679367Y-78937891D02*
X55612024Y-78937891D01*
X55612024Y-78937891D02*
X55511008Y-78904220D01*
X55511008Y-78904220D02*
X55308978Y-78702189D01*
X55308978Y-78702189D02*
X55275306Y-78601174D01*
X55275306Y-78601174D02*
X55275306Y-78533830D01*
X55911900Y-73640970D02*
X56248618Y-73977688D01*
X55305809Y-73506283D02*
X55911900Y-73640970D01*
X55911900Y-73640970D02*
X55777213Y-73034879D01*
X57090411Y-73135894D02*
X56686350Y-73539955D01*
X56888381Y-73337924D02*
X56181274Y-72630818D01*
X56181274Y-72630818D02*
X56214946Y-72799176D01*
X56214946Y-72799176D02*
X56214946Y-72933863D01*
X56214946Y-72933863D02*
X56181274Y-73034879D01*
X79313095Y-86579819D02*
X79313095Y-87389342D01*
X79313095Y-87389342D02*
X79360714Y-87484580D01*
X79360714Y-87484580D02*
X79408333Y-87532200D01*
X79408333Y-87532200D02*
X79503571Y-87579819D01*
X79503571Y-87579819D02*
X79694047Y-87579819D01*
X79694047Y-87579819D02*
X79789285Y-87532200D01*
X79789285Y-87532200D02*
X79836904Y-87484580D01*
X79836904Y-87484580D02*
X79884523Y-87389342D01*
X79884523Y-87389342D02*
X79884523Y-86579819D01*
X80313095Y-86675057D02*
X80360714Y-86627438D01*
X80360714Y-86627438D02*
X80455952Y-86579819D01*
X80455952Y-86579819D02*
X80694047Y-86579819D01*
X80694047Y-86579819D02*
X80789285Y-86627438D01*
X80789285Y-86627438D02*
X80836904Y-86675057D01*
X80836904Y-86675057D02*
X80884523Y-86770295D01*
X80884523Y-86770295D02*
X80884523Y-86865533D01*
X80884523Y-86865533D02*
X80836904Y-87008390D01*
X80836904Y-87008390D02*
X80265476Y-87579819D01*
X80265476Y-87579819D02*
X80884523Y-87579819D01*
X74934580Y-82792857D02*
X74982200Y-82840476D01*
X74982200Y-82840476D02*
X75029819Y-82983333D01*
X75029819Y-82983333D02*
X75029819Y-83078571D01*
X75029819Y-83078571D02*
X74982200Y-83221428D01*
X74982200Y-83221428D02*
X74886961Y-83316666D01*
X74886961Y-83316666D02*
X74791723Y-83364285D01*
X74791723Y-83364285D02*
X74601247Y-83411904D01*
X74601247Y-83411904D02*
X74458390Y-83411904D01*
X74458390Y-83411904D02*
X74267914Y-83364285D01*
X74267914Y-83364285D02*
X74172676Y-83316666D01*
X74172676Y-83316666D02*
X74077438Y-83221428D01*
X74077438Y-83221428D02*
X74029819Y-83078571D01*
X74029819Y-83078571D02*
X74029819Y-82983333D01*
X74029819Y-82983333D02*
X74077438Y-82840476D01*
X74077438Y-82840476D02*
X74125057Y-82792857D01*
X75029819Y-81840476D02*
X75029819Y-82411904D01*
X75029819Y-82126190D02*
X74029819Y-82126190D01*
X74029819Y-82126190D02*
X74172676Y-82221428D01*
X74172676Y-82221428D02*
X74267914Y-82316666D01*
X74267914Y-82316666D02*
X74315533Y-82411904D01*
X74029819Y-81221428D02*
X74029819Y-81126190D01*
X74029819Y-81126190D02*
X74077438Y-81030952D01*
X74077438Y-81030952D02*
X74125057Y-80983333D01*
X74125057Y-80983333D02*
X74220295Y-80935714D01*
X74220295Y-80935714D02*
X74410771Y-80888095D01*
X74410771Y-80888095D02*
X74648866Y-80888095D01*
X74648866Y-80888095D02*
X74839342Y-80935714D01*
X74839342Y-80935714D02*
X74934580Y-80983333D01*
X74934580Y-80983333D02*
X74982200Y-81030952D01*
X74982200Y-81030952D02*
X75029819Y-81126190D01*
X75029819Y-81126190D02*
X75029819Y-81221428D01*
X75029819Y-81221428D02*
X74982200Y-81316666D01*
X74982200Y-81316666D02*
X74934580Y-81364285D01*
X74934580Y-81364285D02*
X74839342Y-81411904D01*
X74839342Y-81411904D02*
X74648866Y-81459523D01*
X74648866Y-81459523D02*
X74410771Y-81459523D01*
X74410771Y-81459523D02*
X74220295Y-81411904D01*
X74220295Y-81411904D02*
X74125057Y-81364285D01*
X74125057Y-81364285D02*
X74077438Y-81316666D01*
X74077438Y-81316666D02*
X74029819Y-81221428D01*
X65408333Y-64779819D02*
X65075000Y-64303628D01*
X64836905Y-64779819D02*
X64836905Y-63779819D01*
X64836905Y-63779819D02*
X65217857Y-63779819D01*
X65217857Y-63779819D02*
X65313095Y-63827438D01*
X65313095Y-63827438D02*
X65360714Y-63875057D01*
X65360714Y-63875057D02*
X65408333Y-63970295D01*
X65408333Y-63970295D02*
X65408333Y-64113152D01*
X65408333Y-64113152D02*
X65360714Y-64208390D01*
X65360714Y-64208390D02*
X65313095Y-64256009D01*
X65313095Y-64256009D02*
X65217857Y-64303628D01*
X65217857Y-64303628D02*
X64836905Y-64303628D01*
X66265476Y-63779819D02*
X66075000Y-63779819D01*
X66075000Y-63779819D02*
X65979762Y-63827438D01*
X65979762Y-63827438D02*
X65932143Y-63875057D01*
X65932143Y-63875057D02*
X65836905Y-64017914D01*
X65836905Y-64017914D02*
X65789286Y-64208390D01*
X65789286Y-64208390D02*
X65789286Y-64589342D01*
X65789286Y-64589342D02*
X65836905Y-64684580D01*
X65836905Y-64684580D02*
X65884524Y-64732200D01*
X65884524Y-64732200D02*
X65979762Y-64779819D01*
X65979762Y-64779819D02*
X66170238Y-64779819D01*
X66170238Y-64779819D02*
X66265476Y-64732200D01*
X66265476Y-64732200D02*
X66313095Y-64684580D01*
X66313095Y-64684580D02*
X66360714Y-64589342D01*
X66360714Y-64589342D02*
X66360714Y-64351247D01*
X66360714Y-64351247D02*
X66313095Y-64256009D01*
X66313095Y-64256009D02*
X66265476Y-64208390D01*
X66265476Y-64208390D02*
X66170238Y-64160771D01*
X66170238Y-64160771D02*
X65979762Y-64160771D01*
X65979762Y-64160771D02*
X65884524Y-64208390D01*
X65884524Y-64208390D02*
X65836905Y-64256009D01*
X65836905Y-64256009D02*
X65789286Y-64351247D01*
X83441666Y-67979819D02*
X83441666Y-68694104D01*
X83441666Y-68694104D02*
X83394047Y-68836961D01*
X83394047Y-68836961D02*
X83298809Y-68932200D01*
X83298809Y-68932200D02*
X83155952Y-68979819D01*
X83155952Y-68979819D02*
X83060714Y-68979819D01*
X84441666Y-68979819D02*
X83870238Y-68979819D01*
X84155952Y-68979819D02*
X84155952Y-67979819D01*
X84155952Y-67979819D02*
X84060714Y-68122676D01*
X84060714Y-68122676D02*
X83965476Y-68217914D01*
X83965476Y-68217914D02*
X83870238Y-68265533D01*
X64958333Y-68324580D02*
X64910714Y-68372200D01*
X64910714Y-68372200D02*
X64767857Y-68419819D01*
X64767857Y-68419819D02*
X64672619Y-68419819D01*
X64672619Y-68419819D02*
X64529762Y-68372200D01*
X64529762Y-68372200D02*
X64434524Y-68276961D01*
X64434524Y-68276961D02*
X64386905Y-68181723D01*
X64386905Y-68181723D02*
X64339286Y-67991247D01*
X64339286Y-67991247D02*
X64339286Y-67848390D01*
X64339286Y-67848390D02*
X64386905Y-67657914D01*
X64386905Y-67657914D02*
X64434524Y-67562676D01*
X64434524Y-67562676D02*
X64529762Y-67467438D01*
X64529762Y-67467438D02*
X64672619Y-67419819D01*
X64672619Y-67419819D02*
X64767857Y-67419819D01*
X64767857Y-67419819D02*
X64910714Y-67467438D01*
X64910714Y-67467438D02*
X64958333Y-67515057D01*
X65863095Y-67419819D02*
X65386905Y-67419819D01*
X65386905Y-67419819D02*
X65339286Y-67896009D01*
X65339286Y-67896009D02*
X65386905Y-67848390D01*
X65386905Y-67848390D02*
X65482143Y-67800771D01*
X65482143Y-67800771D02*
X65720238Y-67800771D01*
X65720238Y-67800771D02*
X65815476Y-67848390D01*
X65815476Y-67848390D02*
X65863095Y-67896009D01*
X65863095Y-67896009D02*
X65910714Y-67991247D01*
X65910714Y-67991247D02*
X65910714Y-68229342D01*
X65910714Y-68229342D02*
X65863095Y-68324580D01*
X65863095Y-68324580D02*
X65815476Y-68372200D01*
X65815476Y-68372200D02*
X65720238Y-68419819D01*
X65720238Y-68419819D02*
X65482143Y-68419819D01*
X65482143Y-68419819D02*
X65386905Y-68372200D01*
X65386905Y-68372200D02*
X65339286Y-68324580D01*
X71061905Y-66154819D02*
X71061905Y-65154819D01*
X71061905Y-65154819D02*
X71300000Y-65154819D01*
X71300000Y-65154819D02*
X71442857Y-65202438D01*
X71442857Y-65202438D02*
X71538095Y-65297676D01*
X71538095Y-65297676D02*
X71585714Y-65392914D01*
X71585714Y-65392914D02*
X71633333Y-65583390D01*
X71633333Y-65583390D02*
X71633333Y-65726247D01*
X71633333Y-65726247D02*
X71585714Y-65916723D01*
X71585714Y-65916723D02*
X71538095Y-66011961D01*
X71538095Y-66011961D02*
X71442857Y-66107200D01*
X71442857Y-66107200D02*
X71300000Y-66154819D01*
X71300000Y-66154819D02*
X71061905Y-66154819D01*
X72585714Y-66154819D02*
X72014286Y-66154819D01*
X72300000Y-66154819D02*
X72300000Y-65154819D01*
X72300000Y-65154819D02*
X72204762Y-65297676D01*
X72204762Y-65297676D02*
X72109524Y-65392914D01*
X72109524Y-65392914D02*
X72014286Y-65440533D01*
X80299819Y-62783333D02*
X81014104Y-62783333D01*
X81014104Y-62783333D02*
X81156961Y-62830952D01*
X81156961Y-62830952D02*
X81252200Y-62926190D01*
X81252200Y-62926190D02*
X81299819Y-63069047D01*
X81299819Y-63069047D02*
X81299819Y-63164285D01*
X80299819Y-61830952D02*
X80299819Y-62307142D01*
X80299819Y-62307142D02*
X80776009Y-62354761D01*
X80776009Y-62354761D02*
X80728390Y-62307142D01*
X80728390Y-62307142D02*
X80680771Y-62211904D01*
X80680771Y-62211904D02*
X80680771Y-61973809D01*
X80680771Y-61973809D02*
X80728390Y-61878571D01*
X80728390Y-61878571D02*
X80776009Y-61830952D01*
X80776009Y-61830952D02*
X80871247Y-61783333D01*
X80871247Y-61783333D02*
X81109342Y-61783333D01*
X81109342Y-61783333D02*
X81204580Y-61830952D01*
X81204580Y-61830952D02*
X81252200Y-61878571D01*
X81252200Y-61878571D02*
X81299819Y-61973809D01*
X81299819Y-61973809D02*
X81299819Y-62211904D01*
X81299819Y-62211904D02*
X81252200Y-62307142D01*
X81252200Y-62307142D02*
X81204580Y-62354761D01*
X78158333Y-72229819D02*
X77825000Y-71753628D01*
X77586905Y-72229819D02*
X77586905Y-71229819D01*
X77586905Y-71229819D02*
X77967857Y-71229819D01*
X77967857Y-71229819D02*
X78063095Y-71277438D01*
X78063095Y-71277438D02*
X78110714Y-71325057D01*
X78110714Y-71325057D02*
X78158333Y-71420295D01*
X78158333Y-71420295D02*
X78158333Y-71563152D01*
X78158333Y-71563152D02*
X78110714Y-71658390D01*
X78110714Y-71658390D02*
X78063095Y-71706009D01*
X78063095Y-71706009D02*
X77967857Y-71753628D01*
X77967857Y-71753628D02*
X77586905Y-71753628D01*
X79110714Y-72229819D02*
X78539286Y-72229819D01*
X78825000Y-72229819D02*
X78825000Y-71229819D01*
X78825000Y-71229819D02*
X78729762Y-71372676D01*
X78729762Y-71372676D02*
X78634524Y-71467914D01*
X78634524Y-71467914D02*
X78539286Y-71515533D01*
X76978333Y-76054580D02*
X76930714Y-76102200D01*
X76930714Y-76102200D02*
X76787857Y-76149819D01*
X76787857Y-76149819D02*
X76692619Y-76149819D01*
X76692619Y-76149819D02*
X76549762Y-76102200D01*
X76549762Y-76102200D02*
X76454524Y-76006961D01*
X76454524Y-76006961D02*
X76406905Y-75911723D01*
X76406905Y-75911723D02*
X76359286Y-75721247D01*
X76359286Y-75721247D02*
X76359286Y-75578390D01*
X76359286Y-75578390D02*
X76406905Y-75387914D01*
X76406905Y-75387914D02*
X76454524Y-75292676D01*
X76454524Y-75292676D02*
X76549762Y-75197438D01*
X76549762Y-75197438D02*
X76692619Y-75149819D01*
X76692619Y-75149819D02*
X76787857Y-75149819D01*
X76787857Y-75149819D02*
X76930714Y-75197438D01*
X76930714Y-75197438D02*
X76978333Y-75245057D01*
X77549762Y-75578390D02*
X77454524Y-75530771D01*
X77454524Y-75530771D02*
X77406905Y-75483152D01*
X77406905Y-75483152D02*
X77359286Y-75387914D01*
X77359286Y-75387914D02*
X77359286Y-75340295D01*
X77359286Y-75340295D02*
X77406905Y-75245057D01*
X77406905Y-75245057D02*
X77454524Y-75197438D01*
X77454524Y-75197438D02*
X77549762Y-75149819D01*
X77549762Y-75149819D02*
X77740238Y-75149819D01*
X77740238Y-75149819D02*
X77835476Y-75197438D01*
X77835476Y-75197438D02*
X77883095Y-75245057D01*
X77883095Y-75245057D02*
X77930714Y-75340295D01*
X77930714Y-75340295D02*
X77930714Y-75387914D01*
X77930714Y-75387914D02*
X77883095Y-75483152D01*
X77883095Y-75483152D02*
X77835476Y-75530771D01*
X77835476Y-75530771D02*
X77740238Y-75578390D01*
X77740238Y-75578390D02*
X77549762Y-75578390D01*
X77549762Y-75578390D02*
X77454524Y-75626009D01*
X77454524Y-75626009D02*
X77406905Y-75673628D01*
X77406905Y-75673628D02*
X77359286Y-75768866D01*
X77359286Y-75768866D02*
X77359286Y-75959342D01*
X77359286Y-75959342D02*
X77406905Y-76054580D01*
X77406905Y-76054580D02*
X77454524Y-76102200D01*
X77454524Y-76102200D02*
X77549762Y-76149819D01*
X77549762Y-76149819D02*
X77740238Y-76149819D01*
X77740238Y-76149819D02*
X77835476Y-76102200D01*
X77835476Y-76102200D02*
X77883095Y-76054580D01*
X77883095Y-76054580D02*
X77930714Y-75959342D01*
X77930714Y-75959342D02*
X77930714Y-75768866D01*
X77930714Y-75768866D02*
X77883095Y-75673628D01*
X77883095Y-75673628D02*
X77835476Y-75626009D01*
X77835476Y-75626009D02*
X77740238Y-75578390D01*
D11*
%TO.C,C12*%
X53930810Y-81978307D02*
X53778307Y-82130810D01*
X53421693Y-81469190D02*
X53269190Y-81621693D01*
D12*
%TO.C,C7*%
X60195746Y-73145746D02*
G75*
G02*
X60095746Y-73145746I-50000J0D01*
G01*
X60095746Y-73145746D02*
G75*
G02*
X60195746Y-73145746I50000J0D01*
G01*
D11*
%TO.C,SW1*%
X56551167Y-86989823D02*
X56636020Y-86904971D01*
X57350198Y-86190793D02*
X58156300Y-85384691D01*
X58870478Y-84670513D02*
X58955330Y-84585660D01*
X58955330Y-84585660D02*
X55844061Y-81474391D01*
X53439898Y-83878554D02*
X56551167Y-86989823D01*
X53524750Y-83793701D02*
X53439898Y-83878554D01*
X55045030Y-82273421D02*
X54238928Y-83079523D01*
X55844061Y-81474391D02*
X55759208Y-81559243D01*
%TO.C,C4*%
X61265000Y-72747164D02*
X61265000Y-72962836D01*
X61985000Y-72747164D02*
X61985000Y-72962836D01*
%TO.C,C1*%
X60049999Y-69360000D02*
X60050000Y-71680000D01*
X60050000Y-71680000D02*
X61700000Y-71680000D01*
X61700000Y-71680000D02*
X61700001Y-69360000D01*
%TO.C,C2*%
X70232836Y-80765000D02*
X70017164Y-80765000D01*
X70232836Y-81485000D02*
X70017164Y-81485000D01*
%TO.C,R5*%
X68303641Y-65120000D02*
X67996359Y-65120000D01*
X68303641Y-65880000D02*
X67996359Y-65880000D01*
%TO.C,R3*%
X58262770Y-86773303D02*
X58598303Y-86437770D01*
X59001697Y-87512230D02*
X59337230Y-87176697D01*
%TO.C,R4*%
X55927500Y-71012742D02*
X55927500Y-71487258D01*
X56972500Y-71012742D02*
X56972500Y-71487258D01*
%TO.C,J4*%
X53831462Y-66778051D02*
X55581551Y-65027961D01*
X54180272Y-67126861D02*
X53831462Y-66778051D01*
X54326436Y-69564051D02*
X53506193Y-68743807D01*
X54899193Y-68991295D02*
X54326436Y-69564051D01*
X55471949Y-68418538D02*
X55123139Y-68069728D01*
X55471949Y-68418538D02*
X57222039Y-66668449D01*
X56176989Y-65623400D02*
X55581551Y-65027961D01*
X57222039Y-66668449D02*
X56626600Y-66073011D01*
%TO.C,C6*%
X59660000Y-79375001D02*
X61980000Y-79375000D01*
X61980000Y-77725000D02*
X59660000Y-77724999D01*
X61980000Y-79375000D02*
X61980000Y-77725000D01*
%TO.C,J3*%
X58065001Y-63805000D02*
X58065002Y-62425000D01*
X59445001Y-63804999D02*
X58065001Y-63805000D01*
X60715001Y-61045000D02*
X68445001Y-61045001D01*
X60715001Y-63805000D02*
X60715001Y-61045000D01*
X60715001Y-63805000D02*
X68445001Y-63804999D01*
X68445001Y-63804999D02*
X68445001Y-61045001D01*
%TO.C,C11*%
X81265000Y-82627836D02*
X81265000Y-82412164D01*
X81985000Y-82627836D02*
X81985000Y-82412164D01*
%TO.C,C9*%
X61265000Y-76232836D02*
X61265000Y-76017164D01*
X61985000Y-76232836D02*
X61985000Y-76017164D01*
%TO.C,U1*%
X64015000Y-71515000D02*
X64465000Y-71515000D01*
X64015000Y-71965000D02*
X64015000Y-71515000D01*
X64015000Y-78735000D02*
X64015000Y-78285000D01*
X64465000Y-78735000D02*
X64015000Y-78735000D01*
X70785000Y-71515000D02*
X71235000Y-71515000D01*
X71235000Y-71515000D02*
X71235000Y-71965000D01*
X71235000Y-78285000D02*
X71235000Y-78735000D01*
X71235000Y-78735000D02*
X70785000Y-78735000D01*
X63375000Y-71965000D02*
X63035000Y-71495000D01*
X63715000Y-71495000D01*
X63375000Y-71965000D01*
G36*
X63375000Y-71965000D02*
G01*
X63035000Y-71495000D01*
X63715000Y-71495000D01*
X63375000Y-71965000D01*
G37*
%TO.C,J2*%
X61185000Y-86245001D02*
X61185000Y-89004999D01*
X68915000Y-86245000D02*
X61185000Y-86245001D01*
X68915000Y-86245000D02*
X68915000Y-89005000D01*
X68915000Y-89005000D02*
X61185000Y-89004999D01*
X70185000Y-86245001D02*
X71565000Y-86245000D01*
X71565000Y-86245000D02*
X71564999Y-87625000D01*
%TO.C,C3*%
X73265000Y-72517164D02*
X73265000Y-72732836D01*
X73985000Y-72517164D02*
X73985000Y-72732836D01*
D12*
%TO.C,C13*%
X56945746Y-77895746D02*
G75*
G02*
X56845746Y-77895746I-50000J0D01*
G01*
X56845746Y-77895746D02*
G75*
G02*
X56945746Y-77895746I50000J0D01*
G01*
D11*
%TO.C,Y1*%
X55330349Y-75299264D02*
X57748655Y-77717570D01*
X57748655Y-77717570D02*
X60661935Y-74804290D01*
%TO.C,U2*%
X73964999Y-80154999D02*
X73965000Y-83914999D01*
X73965000Y-83914999D02*
X75224999Y-83914999D01*
X80785000Y-83914999D02*
X79525001Y-83914999D01*
X80785001Y-80154999D02*
X80785000Y-83914999D01*
X81015000Y-79114999D02*
X80685000Y-78874999D01*
X81015000Y-78634999D01*
X81015000Y-79114999D01*
G36*
X81015000Y-79114999D02*
G01*
X80685000Y-78874999D01*
X81015000Y-78634999D01*
X81015000Y-79114999D01*
G37*
%TO.C,C10*%
X72074999Y-81550000D02*
X72075000Y-83870000D01*
X72075000Y-83870000D02*
X73725000Y-83870000D01*
X73725000Y-83870000D02*
X73725001Y-81550000D01*
%TO.C,R6*%
X65471359Y-65095000D02*
X65778641Y-65095000D01*
X65471359Y-65855000D02*
X65778641Y-65855000D01*
%TO.C,J1*%
X82040000Y-70065000D02*
X82040000Y-70445000D01*
X82040000Y-70065000D02*
X83810000Y-70065000D01*
X82040000Y-77685000D02*
X82040000Y-77305000D01*
X83810000Y-77685000D02*
X82040000Y-77685000D01*
X86090000Y-70065000D02*
X86350000Y-70065000D01*
X86350000Y-77685000D02*
X86090000Y-77685000D01*
%TO.C,C5*%
X65017164Y-68765000D02*
X65232836Y-68765000D01*
X65017164Y-69485000D02*
X65232836Y-69485000D01*
D12*
%TO.C,D1*%
X70425001Y-65170000D02*
G75*
G02*
X70324999Y-65170000I-50001J0D01*
G01*
X70324999Y-65170000D02*
G75*
G02*
X70425001Y-65170000I50001J0D01*
G01*
D11*
%TO.C,J5*%
X69465000Y-61070001D02*
X69465000Y-63829999D01*
X77195000Y-61070000D02*
X69465000Y-61070001D01*
X77195000Y-61070000D02*
X77195000Y-63830000D01*
X77195000Y-63830000D02*
X69465000Y-63829999D01*
X78465000Y-61070001D02*
X79845000Y-61070000D01*
X79845000Y-61070000D02*
X79844999Y-62450000D01*
%TO.C,R1*%
X76495000Y-73046359D02*
X76495000Y-73353641D01*
X77255000Y-73046359D02*
X77255000Y-73353641D01*
%TO.C,C8*%
X77037164Y-76495000D02*
X77252836Y-76495000D01*
X77037164Y-77215000D02*
X77252836Y-77215000D01*
%TD*%
M02*
