%TF.GenerationSoftware,KiCad,Pcbnew,9.0.7-9.0.7~ubuntu24.04.1*%
%TF.CreationDate,2026-02-28T14:15:44+03:00*%
%TF.ProjectId,Kiicad_project,4b696963-6164-45f7-9072-6f6a6563742e,rev?*%
%TF.SameCoordinates,Original*%
%TF.FileFunction,Copper,L4,Bot*%
%TF.FilePolarity,Positive*%
%FSLAX46Y46*%
G04 Gerber Fmt 4.6, Leading zero omitted, Abs format (unit mm)*
G04 Created by KiCad (PCBNEW 9.0.7-9.0.7~ubuntu24.04.1) date 2026-02-28 14:15:44*
%MOMM*%
%LPD*%
G01*
G04 APERTURE LIST*
G04 Aperture macros list*
%AMRotRect*
0 Rectangle, with rotation*
0 The origin of the aperture is its center*
0 $1 length*
0 $2 width*
0 $3 Rotation angle, in degrees counterclockwise*
0 Add horizontal line*
21,1,$1,$2,0,0,$3*%
G04 Aperture macros list end*
%TA.AperFunction,ComponentPad*%
%ADD10RotRect,1.000000X1.000000X135.000000*%
%TD*%
%TA.AperFunction,ComponentPad*%
%ADD11C,1.000000*%
%TD*%
%TA.AperFunction,ComponentPad*%
%ADD12R,1.700000X1.700000*%
%TD*%
%TA.AperFunction,ComponentPad*%
%ADD13C,1.700000*%
%TD*%
%TA.AperFunction,ViaPad*%
%ADD14C,0.600000*%
%TD*%
%TA.AperFunction,Conductor*%
%ADD15C,0.500000*%
%TD*%
%TA.AperFunction,Conductor*%
%ADD16C,0.300000*%
%TD*%
G04 APERTURE END LIST*
D10*
%TO.P,J4,1,Pin_1*%
%TO.N,+3.3V*%
X54078949Y-68171051D03*
D11*
%TO.P,J4,2,Pin_2*%
%TO.N,/BOOT*%
X54976975Y-67273025D03*
%TO.P,J4,3,Pin_3*%
%TO.N,GND*%
X55875000Y-66375000D03*
%TD*%
D12*
%TO.P,J3,1,Pin_1*%
%TO.N,GND*%
X59445001Y-62425000D03*
D13*
%TO.P,J3,2,Pin_2*%
%TO.N,+3.3V*%
X61985001Y-62425000D03*
%TO.P,J3,3,Pin_3*%
%TO.N,/I2C_SDA*%
X64525000Y-62425000D03*
%TO.P,J3,4,Pin_4*%
%TO.N,/I2C_SCL*%
X67065001Y-62425000D03*
%TD*%
D12*
%TO.P,J2,1,Pin_1*%
%TO.N,GND*%
X70185000Y-87625000D03*
D13*
%TO.P,J2,2,Pin_2*%
%TO.N,+3.3V*%
X67645000Y-87625000D03*
%TO.P,J2,3,Pin_3*%
%TO.N,/UART_RX*%
X65105001Y-87625000D03*
%TO.P,J2,4,Pin_4*%
%TO.N,/UART_TX*%
X62565000Y-87625000D03*
%TD*%
D12*
%TO.P,J5,1,Pin_1*%
%TO.N,+3.3V*%
X78465000Y-62450000D03*
D13*
%TO.P,J5,2,Pin_2*%
%TO.N,GND*%
X75925000Y-62450000D03*
%TO.P,J5,3,Pin_3*%
%TO.N,/SWDIO*%
X73385001Y-62450000D03*
%TO.P,J5,4,Pin_4*%
%TO.N,/SWCLK*%
X70845000Y-62450000D03*
%TD*%
D14*
%TO.N,GND*%
X79050000Y-76825000D03*
X75875000Y-64700000D03*
X51800000Y-70850000D03*
X59775000Y-77275000D03*
X68750000Y-81200000D03*
%TO.N,+3.3V*%
X58600000Y-68325000D03*
X65000001Y-66875000D03*
X67125001Y-66875000D03*
X77225000Y-66825000D03*
X65865000Y-83065000D03*
X60825000Y-81050000D03*
%TO.N,GND*%
X79950000Y-81475000D03*
X70375000Y-65125000D03*
X65050000Y-76450000D03*
X58175000Y-78275000D03*
X75100000Y-73100000D03*
X67325000Y-75500000D03*
X80600000Y-82100000D03*
X55025000Y-76150000D03*
X79875000Y-80550000D03*
X59375000Y-64950000D03*
X69850000Y-77875000D03*
X65675000Y-72325000D03*
X60875000Y-73375000D03*
X68900000Y-73825000D03*
X54100000Y-79525000D03*
X55600000Y-74375000D03*
X80000000Y-67500000D03*
X80000000Y-72625000D03*
X70400000Y-84850000D03*
X81675000Y-80600000D03*
X68550000Y-76725000D03*
X69900000Y-75200000D03*
X57996142Y-75051777D03*
%TO.N,/NRST*%
X61800000Y-81925000D03*
X63350000Y-81925000D03*
%TD*%
D15*
%TO.N,+3.3V*%
X77225000Y-66825000D02*
X78450000Y-65600000D01*
X78450000Y-65600000D02*
X78450000Y-62465000D01*
X78450000Y-62465000D02*
X78465000Y-62450000D01*
X61975000Y-66875000D02*
X77175000Y-66875000D01*
X77175000Y-66875000D02*
X77225000Y-66825000D01*
X60525000Y-68325000D02*
X61975000Y-66875000D01*
X61975000Y-62435001D02*
X61985001Y-62425000D01*
X58600000Y-68325000D02*
X60525000Y-68325000D01*
X61975000Y-66875000D02*
X61975000Y-62435001D01*
X60825000Y-82125000D02*
X60825000Y-81050000D01*
X65865000Y-83065000D02*
X61765000Y-83065000D01*
X67150001Y-66850000D02*
X67125001Y-66875000D01*
X61765000Y-83065000D02*
X60825000Y-82125000D01*
D16*
%TO.N,/NRST*%
X61800000Y-81925000D02*
X63350000Y-81925000D01*
%TD*%
%TA.AperFunction,Conductor*%
%TO.N,GND*%
G36*
X82452421Y-60450619D02*
G01*
X82481158Y-60452030D01*
X82788173Y-60467113D01*
X82797815Y-60468063D01*
X83127915Y-60517029D01*
X83137421Y-60518919D01*
X83461144Y-60600008D01*
X83470415Y-60602820D01*
X83784625Y-60715246D01*
X83793594Y-60718961D01*
X84095263Y-60861640D01*
X84103826Y-60866218D01*
X84390049Y-61037773D01*
X84398127Y-61043171D01*
X84666150Y-61241951D01*
X84673660Y-61248114D01*
X84920921Y-61472218D01*
X84927781Y-61479078D01*
X84973942Y-61530009D01*
X85151885Y-61726339D01*
X85158048Y-61733849D01*
X85356828Y-62001872D01*
X85362226Y-62009950D01*
X85533781Y-62296173D01*
X85538361Y-62304741D01*
X85681036Y-62606402D01*
X85684754Y-62615378D01*
X85797175Y-62929571D01*
X85799995Y-62938868D01*
X85881077Y-63262567D01*
X85882972Y-63272096D01*
X85931934Y-63602170D01*
X85932887Y-63611838D01*
X85949381Y-63947577D01*
X85949500Y-63952435D01*
X85949500Y-88522564D01*
X85949381Y-88527422D01*
X85932887Y-88863161D01*
X85931934Y-88872829D01*
X85882972Y-89202903D01*
X85881077Y-89212432D01*
X85799995Y-89536131D01*
X85797175Y-89545428D01*
X85684754Y-89859621D01*
X85681036Y-89868597D01*
X85538361Y-90170258D01*
X85533781Y-90178826D01*
X85362226Y-90465049D01*
X85356828Y-90473127D01*
X85158048Y-90741150D01*
X85151885Y-90748660D01*
X84927786Y-90995916D01*
X84920916Y-91002786D01*
X84673660Y-91226885D01*
X84666150Y-91233048D01*
X84398127Y-91431828D01*
X84390049Y-91437226D01*
X84103826Y-91608781D01*
X84095258Y-91613361D01*
X83793597Y-91756036D01*
X83784621Y-91759754D01*
X83470428Y-91872175D01*
X83461131Y-91874995D01*
X83137432Y-91956077D01*
X83127903Y-91957972D01*
X82797829Y-92006934D01*
X82788161Y-92007887D01*
X82452422Y-92024381D01*
X82447564Y-92024500D01*
X53227436Y-92024500D01*
X53222578Y-92024381D01*
X52886838Y-92007887D01*
X52877170Y-92006934D01*
X52547096Y-91957972D01*
X52537567Y-91956077D01*
X52213868Y-91874995D01*
X52204571Y-91872175D01*
X51890378Y-91759754D01*
X51881402Y-91756036D01*
X51579741Y-91613361D01*
X51571173Y-91608781D01*
X51284950Y-91437226D01*
X51276872Y-91431828D01*
X51008849Y-91233048D01*
X51001339Y-91226885D01*
X50754083Y-91002786D01*
X50747218Y-90995921D01*
X50523114Y-90748660D01*
X50516951Y-90741150D01*
X50318171Y-90473127D01*
X50312773Y-90465049D01*
X50183223Y-90248908D01*
X50141216Y-90178823D01*
X50136638Y-90170258D01*
X50005730Y-89893477D01*
X49993961Y-89868594D01*
X49990245Y-89859621D01*
X49946473Y-89737287D01*
X49877820Y-89545415D01*
X49875008Y-89536144D01*
X49793919Y-89212421D01*
X49792029Y-89202915D01*
X49743063Y-88872815D01*
X49742113Y-88863173D01*
X49725619Y-88527421D01*
X49725502Y-88522644D01*
X51574500Y-88522644D01*
X51574500Y-88727355D01*
X51606521Y-88929529D01*
X51669780Y-89124219D01*
X51762712Y-89306609D01*
X51762714Y-89306613D01*
X51883029Y-89472213D01*
X51883031Y-89472215D01*
X51883034Y-89472219D01*
X52027781Y-89616966D01*
X52027784Y-89616968D01*
X52027786Y-89616970D01*
X52193386Y-89737285D01*
X52193390Y-89737287D01*
X52375781Y-89830220D01*
X52570466Y-89893477D01*
X52570467Y-89893477D01*
X52570470Y-89893478D01*
X52772645Y-89925500D01*
X52772648Y-89925500D01*
X52977355Y-89925500D01*
X53179529Y-89893478D01*
X53179530Y-89893477D01*
X53179534Y-89893477D01*
X53374219Y-89830220D01*
X53556610Y-89737287D01*
X53722219Y-89616966D01*
X53866966Y-89472219D01*
X53987287Y-89306610D01*
X53991855Y-89297644D01*
X81849500Y-89297644D01*
X81849500Y-89502355D01*
X81881521Y-89704529D01*
X81944780Y-89899219D01*
X82037712Y-90081609D01*
X82037714Y-90081613D01*
X82158029Y-90247213D01*
X82158031Y-90247215D01*
X82158034Y-90247219D01*
X82302781Y-90391966D01*
X82302784Y-90391968D01*
X82302786Y-90391970D01*
X82468386Y-90512285D01*
X82468390Y-90512287D01*
X82650781Y-90605220D01*
X82845466Y-90668477D01*
X82845467Y-90668477D01*
X82845470Y-90668478D01*
X83047645Y-90700500D01*
X83047648Y-90700500D01*
X83252355Y-90700500D01*
X83454529Y-90668478D01*
X83454530Y-90668477D01*
X83454534Y-90668477D01*
X83649219Y-90605220D01*
X83831610Y-90512287D01*
X83997219Y-90391966D01*
X84141966Y-90247219D01*
X84262287Y-90081610D01*
X84355220Y-89899219D01*
X84418477Y-89704534D01*
X84432347Y-89616966D01*
X84450500Y-89502355D01*
X84450500Y-89297644D01*
X84418478Y-89095470D01*
X84364562Y-88929534D01*
X84355220Y-88900781D01*
X84262287Y-88718390D01*
X84262285Y-88718386D01*
X84141970Y-88552786D01*
X84141968Y-88552784D01*
X84141966Y-88552781D01*
X83997219Y-88408034D01*
X83997215Y-88408031D01*
X83997213Y-88408029D01*
X83831613Y-88287714D01*
X83831609Y-88287712D01*
X83649219Y-88194780D01*
X83454529Y-88131521D01*
X83252355Y-88099500D01*
X83252352Y-88099500D01*
X83047648Y-88099500D01*
X83047645Y-88099500D01*
X82845470Y-88131521D01*
X82650780Y-88194780D01*
X82468390Y-88287712D01*
X82468386Y-88287714D01*
X82302786Y-88408029D01*
X82158029Y-88552786D01*
X82037714Y-88718386D01*
X82037712Y-88718390D01*
X81944780Y-88900780D01*
X81881521Y-89095470D01*
X81849500Y-89297644D01*
X53991855Y-89297644D01*
X54080220Y-89124219D01*
X54143477Y-88929534D01*
X54148031Y-88900781D01*
X54175500Y-88727355D01*
X54175500Y-88522644D01*
X54143478Y-88320470D01*
X54132835Y-88287713D01*
X54080220Y-88125781D01*
X53987287Y-87943390D01*
X53987285Y-87943386D01*
X53866970Y-87777786D01*
X53866968Y-87777784D01*
X53866966Y-87777781D01*
X53722219Y-87633034D01*
X53722215Y-87633031D01*
X53722213Y-87633029D01*
X53691420Y-87610657D01*
X53586530Y-87534450D01*
X61414500Y-87534450D01*
X61414500Y-87715549D01*
X61442828Y-87894406D01*
X61498788Y-88066637D01*
X61564080Y-88194780D01*
X61581004Y-88227994D01*
X61687447Y-88374501D01*
X61815499Y-88502553D01*
X61962006Y-88608996D01*
X62123361Y-88691211D01*
X62295591Y-88747171D01*
X62367136Y-88758502D01*
X62474451Y-88775500D01*
X62474454Y-88775500D01*
X62655549Y-88775500D01*
X62744977Y-88761335D01*
X62834409Y-88747171D01*
X63006639Y-88691211D01*
X63167994Y-88608996D01*
X63314501Y-88502553D01*
X63442553Y-88374501D01*
X63548996Y-88227994D01*
X63631211Y-88066639D01*
X63687171Y-87894409D01*
X63715500Y-87715546D01*
X63715500Y-87534454D01*
X63715500Y-87534450D01*
X63954501Y-87534450D01*
X63954501Y-87715549D01*
X63982829Y-87894406D01*
X64038789Y-88066637D01*
X64104081Y-88194780D01*
X64121005Y-88227994D01*
X64227448Y-88374501D01*
X64355500Y-88502553D01*
X64502007Y-88608996D01*
X64663362Y-88691211D01*
X64835592Y-88747171D01*
X64907137Y-88758502D01*
X65014452Y-88775500D01*
X65014455Y-88775500D01*
X65195550Y-88775500D01*
X65284978Y-88761335D01*
X65374410Y-88747171D01*
X65546640Y-88691211D01*
X65707995Y-88608996D01*
X65854502Y-88502553D01*
X65982554Y-88374501D01*
X66088997Y-88227994D01*
X66171212Y-88066639D01*
X66227172Y-87894409D01*
X66255501Y-87715546D01*
X66255501Y-87534454D01*
X66255501Y-87534450D01*
X66494500Y-87534450D01*
X66494500Y-87715549D01*
X66522828Y-87894406D01*
X66578788Y-88066637D01*
X66644080Y-88194780D01*
X66661004Y-88227994D01*
X66767447Y-88374501D01*
X66895499Y-88502553D01*
X67042006Y-88608996D01*
X67203361Y-88691211D01*
X67375591Y-88747171D01*
X67447136Y-88758502D01*
X67554451Y-88775500D01*
X67554454Y-88775500D01*
X67735549Y-88775500D01*
X67824977Y-88761335D01*
X67914409Y-88747171D01*
X68086639Y-88691211D01*
X68247994Y-88608996D01*
X68394501Y-88502553D01*
X68522553Y-88374501D01*
X68628996Y-88227994D01*
X68711211Y-88066639D01*
X68767171Y-87894409D01*
X68795500Y-87715546D01*
X68795500Y-87534454D01*
X68795500Y-87534450D01*
X68776614Y-87415212D01*
X68767171Y-87355591D01*
X68711211Y-87183361D01*
X68628996Y-87022006D01*
X68522553Y-86875499D01*
X68394501Y-86747447D01*
X68247994Y-86641004D01*
X68247993Y-86641003D01*
X68247991Y-86641002D01*
X68086637Y-86558788D01*
X67914406Y-86502828D01*
X67735549Y-86474500D01*
X67735546Y-86474500D01*
X67554454Y-86474500D01*
X67554451Y-86474500D01*
X67375593Y-86502828D01*
X67203362Y-86558788D01*
X67042008Y-86641002D01*
X66968752Y-86694225D01*
X66895499Y-86747447D01*
X66767447Y-86875499D01*
X66714225Y-86948752D01*
X66661002Y-87022008D01*
X66578788Y-87183362D01*
X66522828Y-87355593D01*
X66494500Y-87534450D01*
X66255501Y-87534450D01*
X66236615Y-87415212D01*
X66227172Y-87355591D01*
X66171212Y-87183361D01*
X66088997Y-87022006D01*
X65982554Y-86875499D01*
X65854502Y-86747447D01*
X65707995Y-86641004D01*
X65707994Y-86641003D01*
X65707992Y-86641002D01*
X65546638Y-86558788D01*
X65374407Y-86502828D01*
X65195550Y-86474500D01*
X65195547Y-86474500D01*
X65014455Y-86474500D01*
X65014452Y-86474500D01*
X64835594Y-86502828D01*
X64663363Y-86558788D01*
X64502009Y-86641002D01*
X64428753Y-86694225D01*
X64355500Y-86747447D01*
X64227448Y-86875499D01*
X64174226Y-86948752D01*
X64121003Y-87022008D01*
X64038789Y-87183362D01*
X63982829Y-87355593D01*
X63954501Y-87534450D01*
X63715500Y-87534450D01*
X63696614Y-87415212D01*
X63687171Y-87355591D01*
X63631211Y-87183361D01*
X63548996Y-87022006D01*
X63442553Y-86875499D01*
X63314501Y-86747447D01*
X63167994Y-86641004D01*
X63167993Y-86641003D01*
X63167991Y-86641002D01*
X63006637Y-86558788D01*
X62834406Y-86502828D01*
X62655549Y-86474500D01*
X62655546Y-86474500D01*
X62474454Y-86474500D01*
X62474451Y-86474500D01*
X62295593Y-86502828D01*
X62123362Y-86558788D01*
X61962008Y-86641002D01*
X61888752Y-86694225D01*
X61815499Y-86747447D01*
X61687447Y-86875499D01*
X61634225Y-86948752D01*
X61581002Y-87022008D01*
X61498788Y-87183362D01*
X61442828Y-87355593D01*
X61414500Y-87534450D01*
X53586530Y-87534450D01*
X53556613Y-87512714D01*
X53556609Y-87512712D01*
X53374219Y-87419780D01*
X53179529Y-87356521D01*
X52977355Y-87324500D01*
X52977352Y-87324500D01*
X52772648Y-87324500D01*
X52772645Y-87324500D01*
X52570470Y-87356521D01*
X52375780Y-87419780D01*
X52193390Y-87512712D01*
X52193386Y-87512714D01*
X52027786Y-87633029D01*
X51883029Y-87777786D01*
X51762714Y-87943386D01*
X51762712Y-87943390D01*
X51669780Y-88125780D01*
X51606521Y-88320470D01*
X51574500Y-88522644D01*
X49725502Y-88522644D01*
X49725500Y-88522564D01*
X49725500Y-80970943D01*
X60224500Y-80970943D01*
X60224500Y-81129057D01*
X60251782Y-81230875D01*
X60265423Y-81281785D01*
X60266963Y-81285501D01*
X60274500Y-81323389D01*
X60274500Y-82052526D01*
X60274500Y-82197474D01*
X60312016Y-82337485D01*
X60384490Y-82463015D01*
X61426985Y-83505510D01*
X61552515Y-83577984D01*
X61692525Y-83615500D01*
X61692526Y-83615500D01*
X61837474Y-83615500D01*
X65591610Y-83615500D01*
X65629495Y-83623036D01*
X65633210Y-83624575D01*
X65633214Y-83624576D01*
X65633216Y-83624577D01*
X65785943Y-83665500D01*
X65785945Y-83665500D01*
X65944055Y-83665500D01*
X65944057Y-83665500D01*
X66096784Y-83624577D01*
X66233716Y-83545520D01*
X66345520Y-83433716D01*
X66424577Y-83296784D01*
X66465500Y-83144057D01*
X66465500Y-82985943D01*
X66424577Y-82833216D01*
X66345520Y-82696284D01*
X66233716Y-82584480D01*
X66096784Y-82505423D01*
X65944057Y-82464500D01*
X65785943Y-82464500D01*
X65714371Y-82483677D01*
X65633210Y-82505424D01*
X65629495Y-82506964D01*
X65591610Y-82514500D01*
X63848743Y-82514500D01*
X63790552Y-82495593D01*
X63754588Y-82446093D01*
X63754588Y-82384907D01*
X63778737Y-82345498D01*
X63830520Y-82293716D01*
X63909577Y-82156784D01*
X63950500Y-82004057D01*
X63950500Y-81845943D01*
X63909577Y-81693216D01*
X63830520Y-81556284D01*
X63718716Y-81444480D01*
X63581784Y-81365423D01*
X63429057Y-81324500D01*
X63270943Y-81324500D01*
X63118216Y-81365423D01*
X62981284Y-81444480D01*
X62980258Y-81445505D01*
X62979331Y-81445977D01*
X62976134Y-81448431D01*
X62975679Y-81447838D01*
X62925744Y-81473281D01*
X62910257Y-81474500D01*
X62239743Y-81474500D01*
X62181552Y-81455593D01*
X62169745Y-81445509D01*
X62168716Y-81444480D01*
X62031784Y-81365423D01*
X61879057Y-81324500D01*
X61720943Y-81324500D01*
X61619125Y-81351782D01*
X61568215Y-81365423D01*
X61531440Y-81386655D01*
X61471592Y-81399374D01*
X61415697Y-81374487D01*
X61385105Y-81321498D01*
X61386314Y-81275298D01*
X61425500Y-81129057D01*
X61425500Y-80970943D01*
X61384577Y-80818216D01*
X61305520Y-80681284D01*
X61193716Y-80569480D01*
X61056784Y-80490423D01*
X60904057Y-80449500D01*
X60745943Y-80449500D01*
X60593216Y-80490423D01*
X60456284Y-80569480D01*
X60344480Y-80681284D01*
X60265423Y-80818216D01*
X60224500Y-80970943D01*
X49725500Y-80970943D01*
X49725500Y-68114879D01*
X53071342Y-68114879D01*
X53071342Y-68227225D01*
X53111926Y-68331983D01*
X53114232Y-68334895D01*
X53127632Y-68351812D01*
X53898188Y-69122366D01*
X53918016Y-69138073D01*
X54022776Y-69178658D01*
X54022777Y-69178658D01*
X54135121Y-69178658D01*
X54135122Y-69178658D01*
X54239882Y-69138073D01*
X54259710Y-69122368D01*
X55030264Y-68351812D01*
X55045971Y-68331984D01*
X55079304Y-68245943D01*
X57999500Y-68245943D01*
X57999500Y-68404057D01*
X58040423Y-68556784D01*
X58119480Y-68693716D01*
X58231284Y-68805520D01*
X58368216Y-68884577D01*
X58520943Y-68925500D01*
X58520945Y-68925500D01*
X58679055Y-68925500D01*
X58679057Y-68925500D01*
X58831784Y-68884577D01*
X58831786Y-68884575D01*
X58831789Y-68884575D01*
X58835505Y-68883036D01*
X58873390Y-68875500D01*
X60597474Y-68875500D01*
X60597475Y-68875500D01*
X60737485Y-68837984D01*
X60863015Y-68765510D01*
X62174028Y-67454495D01*
X62228545Y-67426719D01*
X62244032Y-67425500D01*
X64726611Y-67425500D01*
X64764496Y-67433036D01*
X64768211Y-67434575D01*
X64768215Y-67434576D01*
X64768217Y-67434577D01*
X64920944Y-67475500D01*
X64920946Y-67475500D01*
X65079056Y-67475500D01*
X65079058Y-67475500D01*
X65231785Y-67434577D01*
X65231787Y-67434575D01*
X65231790Y-67434575D01*
X65235506Y-67433036D01*
X65273391Y-67425500D01*
X66851611Y-67425500D01*
X66889496Y-67433036D01*
X66893211Y-67434575D01*
X66893215Y-67434576D01*
X66893217Y-67434577D01*
X67045944Y-67475500D01*
X67045946Y-67475500D01*
X67204056Y-67475500D01*
X67204058Y-67475500D01*
X67356785Y-67434577D01*
X67356787Y-67434575D01*
X67356790Y-67434575D01*
X67360506Y-67433036D01*
X67398391Y-67425500D01*
X77304055Y-67425500D01*
X77304057Y-67425500D01*
X77456784Y-67384577D01*
X77593716Y-67305520D01*
X77705520Y-67193716D01*
X77784577Y-67056784D01*
X77784578Y-67056779D01*
X77786115Y-67053070D01*
X77807574Y-67020949D01*
X78890510Y-65938014D01*
X78962984Y-65812485D01*
X79000500Y-65672474D01*
X79000500Y-65527526D01*
X79000500Y-63699499D01*
X79019407Y-63641308D01*
X79068907Y-63605344D01*
X79099500Y-63600499D01*
X79359861Y-63600499D01*
X79359864Y-63600499D01*
X79384991Y-63597585D01*
X79487765Y-63552206D01*
X79567206Y-63472765D01*
X79612585Y-63369991D01*
X79615500Y-63344865D01*
X79615500Y-62897644D01*
X82249500Y-62897644D01*
X82249500Y-63102355D01*
X82281521Y-63304529D01*
X82344780Y-63499219D01*
X82437712Y-63681609D01*
X82437714Y-63681613D01*
X82558029Y-63847213D01*
X82558031Y-63847215D01*
X82558034Y-63847219D01*
X82702781Y-63991966D01*
X82702784Y-63991968D01*
X82702786Y-63991970D01*
X82868386Y-64112285D01*
X82868390Y-64112287D01*
X83050781Y-64205220D01*
X83245466Y-64268477D01*
X83245467Y-64268477D01*
X83245470Y-64268478D01*
X83447645Y-64300500D01*
X83447648Y-64300500D01*
X83652355Y-64300500D01*
X83854529Y-64268478D01*
X83854530Y-64268477D01*
X83854534Y-64268477D01*
X84049219Y-64205220D01*
X84231610Y-64112287D01*
X84397219Y-63991966D01*
X84541966Y-63847219D01*
X84662287Y-63681610D01*
X84755220Y-63499219D01*
X84818477Y-63304534D01*
X84818791Y-63302550D01*
X84850500Y-63102355D01*
X84850500Y-62897644D01*
X84818478Y-62695470D01*
X84818477Y-62695466D01*
X84755220Y-62500781D01*
X84662287Y-62318390D01*
X84662285Y-62318386D01*
X84541970Y-62152786D01*
X84541968Y-62152784D01*
X84541966Y-62152781D01*
X84397219Y-62008034D01*
X84397215Y-62008031D01*
X84397213Y-62008029D01*
X84231613Y-61887714D01*
X84231609Y-61887712D01*
X84049219Y-61794780D01*
X83854529Y-61731521D01*
X83652355Y-61699500D01*
X83652352Y-61699500D01*
X83447648Y-61699500D01*
X83447645Y-61699500D01*
X83245470Y-61731521D01*
X83050780Y-61794780D01*
X82868390Y-61887712D01*
X82868386Y-61887714D01*
X82702786Y-62008029D01*
X82558029Y-62152786D01*
X82437714Y-62318386D01*
X82437712Y-62318390D01*
X82344780Y-62500780D01*
X82281521Y-62695470D01*
X82249500Y-62897644D01*
X79615500Y-62897644D01*
X79615499Y-62383034D01*
X79615499Y-61555139D01*
X79615499Y-61555136D01*
X79612585Y-61530009D01*
X79567206Y-61427235D01*
X79487765Y-61347794D01*
X79384991Y-61302415D01*
X79384990Y-61302414D01*
X79384988Y-61302414D01*
X79359868Y-61299500D01*
X77570139Y-61299500D01*
X77570136Y-61299501D01*
X77545009Y-61302414D01*
X77442235Y-61347794D01*
X77362794Y-61427235D01*
X77317414Y-61530011D01*
X77314500Y-61555130D01*
X77314500Y-63344860D01*
X77314501Y-63344863D01*
X77317414Y-63369990D01*
X77342756Y-63427385D01*
X77362794Y-63472765D01*
X77442235Y-63552206D01*
X77545009Y-63597585D01*
X77570135Y-63600500D01*
X77800500Y-63600499D01*
X77858690Y-63619406D01*
X77894654Y-63668906D01*
X77899500Y-63699499D01*
X77899500Y-65330966D01*
X77880593Y-65389157D01*
X77870504Y-65400970D01*
X77029050Y-66242423D01*
X77007459Y-66258774D01*
X76997781Y-66264199D01*
X76993216Y-66265423D01*
X76913326Y-66311546D01*
X76912777Y-66311855D01*
X76908007Y-66312805D01*
X76864364Y-66324500D01*
X67398391Y-66324500D01*
X67360506Y-66316964D01*
X67356790Y-66315424D01*
X67297530Y-66299545D01*
X67204058Y-66274500D01*
X67045944Y-66274500D01*
X66974372Y-66293677D01*
X66893211Y-66315424D01*
X66889496Y-66316964D01*
X66851611Y-66324500D01*
X65273391Y-66324500D01*
X65235506Y-66316964D01*
X65231790Y-66315424D01*
X65172530Y-66299545D01*
X65079058Y-66274500D01*
X64920944Y-66274500D01*
X64849372Y-66293677D01*
X64768211Y-66315424D01*
X64764496Y-66316964D01*
X64726611Y-66324500D01*
X62624500Y-66324500D01*
X62566309Y-66305593D01*
X62530345Y-66256093D01*
X62525500Y-66225500D01*
X62525500Y-63501505D01*
X62544407Y-63443314D01*
X62579557Y-63413294D01*
X62587995Y-63408996D01*
X62734502Y-63302553D01*
X62862554Y-63174501D01*
X62968997Y-63027994D01*
X63051212Y-62866639D01*
X63107172Y-62694409D01*
X63131541Y-62540549D01*
X63135501Y-62515549D01*
X63135501Y-62334450D01*
X63374500Y-62334450D01*
X63374500Y-62515549D01*
X63402828Y-62694406D01*
X63458788Y-62866637D01*
X63490854Y-62929571D01*
X63541004Y-63027994D01*
X63647447Y-63174501D01*
X63775499Y-63302553D01*
X63922006Y-63408996D01*
X64083361Y-63491211D01*
X64255591Y-63547171D01*
X64327136Y-63558502D01*
X64434451Y-63575500D01*
X64434454Y-63575500D01*
X64615549Y-63575500D01*
X64704977Y-63561335D01*
X64794409Y-63547171D01*
X64966639Y-63491211D01*
X65127994Y-63408996D01*
X65274501Y-63302553D01*
X65402553Y-63174501D01*
X65508996Y-63027994D01*
X65591211Y-62866639D01*
X65647171Y-62694409D01*
X65671540Y-62540549D01*
X65675500Y-62515549D01*
X65675500Y-62334450D01*
X65914501Y-62334450D01*
X65914501Y-62515549D01*
X65942829Y-62694406D01*
X65998789Y-62866637D01*
X66030855Y-62929571D01*
X66081005Y-63027994D01*
X66187448Y-63174501D01*
X66315500Y-63302553D01*
X66462007Y-63408996D01*
X66623362Y-63491211D01*
X66795592Y-63547171D01*
X66867137Y-63558502D01*
X66974452Y-63575500D01*
X66974455Y-63575500D01*
X67155550Y-63575500D01*
X67244978Y-63561335D01*
X67334410Y-63547171D01*
X67506640Y-63491211D01*
X67667995Y-63408996D01*
X67814502Y-63302553D01*
X67942554Y-63174501D01*
X68048997Y-63027994D01*
X68131212Y-62866639D01*
X68187172Y-62694409D01*
X68211541Y-62540549D01*
X68215501Y-62515549D01*
X68215501Y-62359450D01*
X69694500Y-62359450D01*
X69694500Y-62540549D01*
X69722828Y-62719406D01*
X69778788Y-62891637D01*
X69848265Y-63027994D01*
X69861004Y-63052994D01*
X69967447Y-63199501D01*
X70095499Y-63327553D01*
X70242006Y-63433996D01*
X70403361Y-63516211D01*
X70575591Y-63572171D01*
X70647136Y-63583502D01*
X70754451Y-63600500D01*
X70754454Y-63600500D01*
X70935549Y-63600500D01*
X71024977Y-63586335D01*
X71114409Y-63572171D01*
X71286639Y-63516211D01*
X71447994Y-63433996D01*
X71594501Y-63327553D01*
X71722553Y-63199501D01*
X71828996Y-63052994D01*
X71911211Y-62891639D01*
X71967171Y-62719409D01*
X71984373Y-62610799D01*
X71995500Y-62540549D01*
X71995500Y-62359450D01*
X72234501Y-62359450D01*
X72234501Y-62540549D01*
X72262829Y-62719406D01*
X72318789Y-62891637D01*
X72388266Y-63027994D01*
X72401005Y-63052994D01*
X72507448Y-63199501D01*
X72635500Y-63327553D01*
X72782007Y-63433996D01*
X72943362Y-63516211D01*
X73115592Y-63572171D01*
X73187137Y-63583502D01*
X73294452Y-63600500D01*
X73294455Y-63600500D01*
X73475550Y-63600500D01*
X73564978Y-63586335D01*
X73654410Y-63572171D01*
X73826640Y-63516211D01*
X73987995Y-63433996D01*
X74134502Y-63327553D01*
X74262554Y-63199501D01*
X74368997Y-63052994D01*
X74451212Y-62891639D01*
X74507172Y-62719409D01*
X74524374Y-62610799D01*
X74535501Y-62540549D01*
X74535501Y-62359450D01*
X74507172Y-62180593D01*
X74507172Y-62180591D01*
X74451212Y-62008361D01*
X74368997Y-61847006D01*
X74262554Y-61700499D01*
X74134502Y-61572447D01*
X73987995Y-61466004D01*
X73987994Y-61466003D01*
X73987992Y-61466002D01*
X73826638Y-61383788D01*
X73654407Y-61327828D01*
X73475550Y-61299500D01*
X73475547Y-61299500D01*
X73294455Y-61299500D01*
X73294452Y-61299500D01*
X73115594Y-61327828D01*
X72943363Y-61383788D01*
X72782009Y-61466002D01*
X72768964Y-61475480D01*
X72635500Y-61572447D01*
X72507448Y-61700499D01*
X72484908Y-61731523D01*
X72401003Y-61847008D01*
X72318789Y-62008362D01*
X72262829Y-62180593D01*
X72234501Y-62359450D01*
X71995500Y-62359450D01*
X71967171Y-62180593D01*
X71967171Y-62180591D01*
X71911211Y-62008361D01*
X71828996Y-61847006D01*
X71722553Y-61700499D01*
X71594501Y-61572447D01*
X71447994Y-61466004D01*
X71447993Y-61466003D01*
X71447991Y-61466002D01*
X71286637Y-61383788D01*
X71114406Y-61327828D01*
X70935549Y-61299500D01*
X70935546Y-61299500D01*
X70754454Y-61299500D01*
X70754451Y-61299500D01*
X70575593Y-61327828D01*
X70403362Y-61383788D01*
X70242008Y-61466002D01*
X70228963Y-61475480D01*
X70095499Y-61572447D01*
X69967447Y-61700499D01*
X69944907Y-61731523D01*
X69861002Y-61847008D01*
X69778788Y-62008362D01*
X69722828Y-62180593D01*
X69694500Y-62359450D01*
X68215501Y-62359450D01*
X68215501Y-62334450D01*
X68191132Y-62180593D01*
X68187172Y-62155591D01*
X68131212Y-61983361D01*
X68048997Y-61822006D01*
X67942554Y-61675499D01*
X67814502Y-61547447D01*
X67667995Y-61441004D01*
X67667994Y-61441003D01*
X67667992Y-61441002D01*
X67506638Y-61358788D01*
X67334407Y-61302828D01*
X67155550Y-61274500D01*
X67155547Y-61274500D01*
X66974455Y-61274500D01*
X66974452Y-61274500D01*
X66795594Y-61302828D01*
X66623363Y-61358788D01*
X66462009Y-61441002D01*
X66409595Y-61479083D01*
X66315500Y-61547447D01*
X66187448Y-61675499D01*
X66134226Y-61748752D01*
X66081003Y-61822008D01*
X65998789Y-61983362D01*
X65942829Y-62155593D01*
X65914501Y-62334450D01*
X65675500Y-62334450D01*
X65651131Y-62180593D01*
X65647171Y-62155591D01*
X65591211Y-61983361D01*
X65508996Y-61822006D01*
X65402553Y-61675499D01*
X65274501Y-61547447D01*
X65127994Y-61441004D01*
X65127993Y-61441003D01*
X65127991Y-61441002D01*
X64966637Y-61358788D01*
X64794406Y-61302828D01*
X64615549Y-61274500D01*
X64615546Y-61274500D01*
X64434454Y-61274500D01*
X64434451Y-61274500D01*
X64255593Y-61302828D01*
X64083362Y-61358788D01*
X63922008Y-61441002D01*
X63869594Y-61479083D01*
X63775499Y-61547447D01*
X63647447Y-61675499D01*
X63594225Y-61748752D01*
X63541002Y-61822008D01*
X63458788Y-61983362D01*
X63402828Y-62155593D01*
X63374500Y-62334450D01*
X63135501Y-62334450D01*
X63111132Y-62180593D01*
X63107172Y-62155591D01*
X63051212Y-61983361D01*
X62968997Y-61822006D01*
X62862554Y-61675499D01*
X62734502Y-61547447D01*
X62587995Y-61441004D01*
X62587994Y-61441003D01*
X62587992Y-61441002D01*
X62426638Y-61358788D01*
X62254407Y-61302828D01*
X62075550Y-61274500D01*
X62075547Y-61274500D01*
X61894455Y-61274500D01*
X61894452Y-61274500D01*
X61715594Y-61302828D01*
X61543363Y-61358788D01*
X61382009Y-61441002D01*
X61329595Y-61479083D01*
X61235500Y-61547447D01*
X61107448Y-61675499D01*
X61054226Y-61748752D01*
X61001003Y-61822008D01*
X60918789Y-61983362D01*
X60862829Y-62155593D01*
X60834501Y-62334450D01*
X60834501Y-62515549D01*
X60862829Y-62694406D01*
X60918789Y-62866637D01*
X60950855Y-62929571D01*
X61001005Y-63027994D01*
X61107448Y-63174501D01*
X61235500Y-63302553D01*
X61382007Y-63408996D01*
X61382009Y-63408997D01*
X61383691Y-63410219D01*
X61419655Y-63459719D01*
X61424500Y-63490312D01*
X61424500Y-66605967D01*
X61405593Y-66664158D01*
X61395504Y-66675971D01*
X60325971Y-67745504D01*
X60271454Y-67773281D01*
X60255967Y-67774500D01*
X58873390Y-67774500D01*
X58835505Y-67766964D01*
X58831789Y-67765424D01*
X58757445Y-67745504D01*
X58679057Y-67724500D01*
X58520943Y-67724500D01*
X58368216Y-67765423D01*
X58231284Y-67844480D01*
X58119480Y-67956284D01*
X58040423Y-68093216D01*
X57999500Y-68245943D01*
X55079304Y-68245943D01*
X55086556Y-68227224D01*
X55086556Y-68148351D01*
X55086558Y-68148034D01*
X55096088Y-68119319D01*
X55105463Y-68090466D01*
X55105728Y-68090273D01*
X55105831Y-68089964D01*
X55130368Y-68072370D01*
X55154963Y-68054502D01*
X55155478Y-68054367D01*
X55155556Y-68054312D01*
X55155688Y-68054312D01*
X55166235Y-68051561D01*
X55210472Y-68042762D01*
X55356154Y-67982419D01*
X55487264Y-67894814D01*
X55598764Y-67783314D01*
X55686369Y-67652204D01*
X55746712Y-67506522D01*
X55777475Y-67351867D01*
X55777475Y-67194183D01*
X55746712Y-67039528D01*
X55686369Y-66893846D01*
X55686368Y-66893844D01*
X55686365Y-66893839D01*
X55650992Y-66840901D01*
X55598764Y-66762736D01*
X55487264Y-66651236D01*
X55435034Y-66616337D01*
X55356160Y-66563634D01*
X55356149Y-66563628D01*
X55210472Y-66503288D01*
X55055819Y-66472525D01*
X55055817Y-66472525D01*
X54898133Y-66472525D01*
X54898130Y-66472525D01*
X54743478Y-66503288D01*
X54743476Y-66503288D01*
X54597800Y-66563628D01*
X54597789Y-66563634D01*
X54466686Y-66651236D01*
X54466682Y-66651239D01*
X54355189Y-66762732D01*
X54355186Y-66762736D01*
X54267584Y-66893839D01*
X54267578Y-66893850D01*
X54207238Y-67039526D01*
X54198440Y-67083759D01*
X54168543Y-67137142D01*
X54112978Y-67162758D01*
X54101342Y-67163444D01*
X54022774Y-67163444D01*
X53918016Y-67204028D01*
X53904010Y-67215122D01*
X53898188Y-67219734D01*
X53898186Y-67219735D01*
X53898186Y-67219736D01*
X53898182Y-67219739D01*
X53127639Y-67990284D01*
X53127627Y-67990298D01*
X53111928Y-68010115D01*
X53111925Y-68010121D01*
X53071343Y-68114873D01*
X53071342Y-68114879D01*
X49725500Y-68114879D01*
X49725500Y-63952435D01*
X49725619Y-63947578D01*
X49730549Y-63847219D01*
X49742113Y-63611824D01*
X49743063Y-63602186D01*
X49791945Y-63272644D01*
X51324500Y-63272644D01*
X51324500Y-63477355D01*
X51356521Y-63679529D01*
X51419780Y-63874219D01*
X51512712Y-64056609D01*
X51512714Y-64056613D01*
X51633029Y-64222213D01*
X51633031Y-64222215D01*
X51633034Y-64222219D01*
X51777781Y-64366966D01*
X51777784Y-64366968D01*
X51777786Y-64366970D01*
X51943386Y-64487285D01*
X51943390Y-64487287D01*
X52125781Y-64580220D01*
X52320466Y-64643477D01*
X52320467Y-64643477D01*
X52320470Y-64643478D01*
X52522645Y-64675500D01*
X52522648Y-64675500D01*
X52727355Y-64675500D01*
X52929529Y-64643478D01*
X52929530Y-64643477D01*
X52929534Y-64643477D01*
X53124219Y-64580220D01*
X53306610Y-64487287D01*
X53472219Y-64366966D01*
X53616966Y-64222219D01*
X53737287Y-64056610D01*
X53830220Y-63874219D01*
X53893477Y-63679534D01*
X53893478Y-63679529D01*
X53925500Y-63477355D01*
X53925500Y-63272644D01*
X53893478Y-63070470D01*
X53850718Y-62938868D01*
X53830220Y-62875781D01*
X53737287Y-62693390D01*
X53737285Y-62693386D01*
X53616970Y-62527786D01*
X53616968Y-62527784D01*
X53616966Y-62527781D01*
X53472219Y-62383034D01*
X53472215Y-62383031D01*
X53472213Y-62383029D01*
X53306613Y-62262714D01*
X53306609Y-62262712D01*
X53124219Y-62169780D01*
X52929529Y-62106521D01*
X52727355Y-62074500D01*
X52727352Y-62074500D01*
X52522648Y-62074500D01*
X52522645Y-62074500D01*
X52320470Y-62106521D01*
X52125780Y-62169780D01*
X51943390Y-62262712D01*
X51943386Y-62262714D01*
X51777786Y-62383029D01*
X51633029Y-62527786D01*
X51512714Y-62693386D01*
X51512712Y-62693390D01*
X51419780Y-62875780D01*
X51356521Y-63070470D01*
X51324500Y-63272644D01*
X49791945Y-63272644D01*
X49792029Y-63272080D01*
X49793917Y-63262590D01*
X49875009Y-62938849D01*
X49877818Y-62929590D01*
X49990249Y-62615367D01*
X49993958Y-62606412D01*
X50136644Y-62304728D01*
X50141211Y-62296185D01*
X50312780Y-62009938D01*
X50318163Y-62001883D01*
X50516957Y-61733841D01*
X50523107Y-61726346D01*
X50747228Y-61479067D01*
X50754067Y-61472228D01*
X51001346Y-61248107D01*
X51008841Y-61241957D01*
X51276883Y-61043163D01*
X51284938Y-61037780D01*
X51571185Y-60866211D01*
X51579728Y-60861644D01*
X51881412Y-60718958D01*
X51890367Y-60715249D01*
X52204590Y-60602818D01*
X52213849Y-60600009D01*
X52537582Y-60518918D01*
X52547080Y-60517029D01*
X52877186Y-60468063D01*
X52886824Y-60467113D01*
X53195606Y-60451944D01*
X53222579Y-60450619D01*
X53227436Y-60450500D01*
X53290892Y-60450500D01*
X82384108Y-60450500D01*
X82447564Y-60450500D01*
X82452421Y-60450619D01*
G37*
%TD.AperFunction*%
%TD*%
M02*
