%TF.GenerationSoftware,KiCad,Pcbnew,9.0.7-9.0.7~ubuntu24.04.1*%
%TF.CreationDate,2026-02-28T14:15:44+03:00*%
%TF.ProjectId,Kiicad_project,4b696963-6164-45f7-9072-6f6a6563742e,rev?*%
%TF.SameCoordinates,Original*%
%TF.FileFunction,Soldermask,Top*%
%TF.FilePolarity,Negative*%
%FSLAX46Y46*%
G04 Gerber Fmt 4.6, Leading zero omitted, Abs format (unit mm)*
G04 Created by KiCad (PCBNEW 9.0.7-9.0.7~ubuntu24.04.1) date 2026-02-28 14:15:44*
%MOMM*%
%LPD*%
G01*
G04 APERTURE LIST*
G04 Aperture macros list*
%AMRoundRect*
0 Rectangle with rounded corners*
0 $1 Rounding radius*
0 $2 $3 $4 $5 $6 $7 $8 $9 X,Y pos of 4 corners*
0 Add a 4 corners polygon primitive as box body*
4,1,4,$2,$3,$4,$5,$6,$7,$8,$9,$2,$3,0*
0 Add four circle primitives for the rounded corners*
1,1,$1+$1,$2,$3*
1,1,$1+$1,$4,$5*
1,1,$1+$1,$6,$7*
1,1,$1+$1,$8,$9*
0 Add four rect primitives between the rounded corners*
20,1,$1+$1,$2,$3,$4,$5,0*
20,1,$1+$1,$4,$5,$6,$7,0*
20,1,$1+$1,$6,$7,$8,$9,0*
20,1,$1+$1,$8,$9,$2,$3,0*%
%AMRotRect*
0 Rectangle, with rotation*
0 The origin of the aperture is its center*
0 $1 length*
0 $2 width*
0 $3 Rotation angle, in degrees counterclockwise*
0 Add horizontal line*
21,1,$1,$2,0,0,$3*%
G04 Aperture macros list end*
%ADD10RoundRect,0.100000X-0.100000X0.130000X-0.100000X-0.130000X0.100000X-0.130000X0.100000X0.130000X0*%
%ADD11RoundRect,0.140000X-0.021213X0.219203X-0.219203X0.021213X0.021213X-0.219203X0.219203X-0.021213X0*%
%ADD12C,2.100000*%
%ADD13RoundRect,0.147500X0.226274X0.017678X0.017678X0.226274X-0.226274X-0.017678X-0.017678X-0.226274X0*%
%ADD14RotRect,1.050000X0.650000X135.000000*%
%ADD15RoundRect,0.140000X-0.170000X0.140000X-0.170000X-0.140000X0.170000X-0.140000X0.170000X0.140000X0*%
%ADD16RoundRect,0.250000X0.315000X-0.295000X0.315000X0.295000X-0.315000X0.295000X-0.315000X-0.295000X0*%
%ADD17RoundRect,0.140000X0.140000X0.170000X-0.140000X0.170000X-0.140000X-0.170000X0.140000X-0.170000X0*%
%ADD18RoundRect,0.135000X0.135000X0.185000X-0.135000X0.185000X-0.135000X-0.185000X0.135000X-0.185000X0*%
%ADD19RoundRect,0.200000X0.053033X-0.335876X0.335876X-0.053033X-0.053033X0.335876X-0.335876X0.053033X0*%
%ADD20RoundRect,0.200000X-0.275000X0.200000X-0.275000X-0.200000X0.275000X-0.200000X0.275000X0.200000X0*%
%ADD21RotRect,1.000000X1.000000X135.000000*%
%ADD22C,1.000000*%
%ADD23RoundRect,0.250000X0.295000X0.315000X-0.295000X0.315000X-0.295000X-0.315000X0.295000X-0.315000X0*%
%ADD24R,1.700000X1.700000*%
%ADD25C,1.700000*%
%ADD26RoundRect,0.140000X0.170000X-0.140000X0.170000X0.140000X-0.170000X0.140000X-0.170000X-0.140000X0*%
%ADD27RoundRect,0.075000X-0.662500X-0.075000X0.662500X-0.075000X0.662500X0.075000X-0.662500X0.075000X0*%
%ADD28RoundRect,0.075000X-0.075000X-0.662500X0.075000X-0.662500X0.075000X0.662500X-0.075000X0.662500X0*%
%ADD29RoundRect,0.250000X-0.070711X-0.565685X0.565685X0.070711X0.070711X0.565685X-0.565685X-0.070711X0*%
%ADD30RoundRect,0.375000X-0.375000X0.625000X-0.375000X-0.625000X0.375000X-0.625000X0.375000X0.625000X0*%
%ADD31RoundRect,0.500000X-1.400000X0.500000X-1.400000X-0.500000X1.400000X-0.500000X1.400000X0.500000X0*%
%ADD32RoundRect,0.135000X-0.135000X-0.185000X0.135000X-0.185000X0.135000X0.185000X-0.135000X0.185000X0*%
%ADD33R,1.380000X0.450000*%
%ADD34R,1.300000X1.650000*%
%ADD35R,1.550000X1.425000*%
%ADD36R,1.900000X1.800000*%
%ADD37R,1.900000X1.000000*%
%ADD38RoundRect,0.140000X-0.140000X-0.170000X0.140000X-0.170000X0.140000X0.170000X-0.140000X0.170000X0*%
%ADD39RoundRect,0.135000X-0.185000X0.135000X-0.185000X-0.135000X0.185000X-0.135000X0.185000X0.135000X0*%
G04 APERTURE END LIST*
D10*
%TO.C,R2*%
X70375000Y-67210000D03*
X70375000Y-67850000D03*
%TD*%
D11*
%TO.C,C12*%
X53939411Y-81460589D03*
X53260589Y-82139411D03*
%TD*%
D12*
%TO.C,H3*%
X52625000Y-63375000D03*
%TD*%
D13*
%TO.C,C7*%
X59717947Y-72717947D03*
X59032053Y-72032053D03*
%TD*%
D14*
%TO.C,SW1*%
X56904721Y-86459493D03*
X53970228Y-83525000D03*
X58425000Y-84939214D03*
X55490507Y-82004721D03*
%TD*%
D15*
%TO.C,C4*%
X61625000Y-72375000D03*
X61625000Y-73335000D03*
%TD*%
D16*
%TO.C,C1*%
X60875000Y-70875000D03*
X60875000Y-69445000D03*
%TD*%
D17*
%TO.C,C2*%
X70605000Y-81125000D03*
X69645000Y-81125000D03*
%TD*%
D18*
%TO.C,R5*%
X68659999Y-65500000D03*
X67640001Y-65500000D03*
%TD*%
D19*
%TO.C,R3*%
X58216637Y-87558363D03*
X59383363Y-86391637D03*
%TD*%
D20*
%TO.C,R4*%
X56450000Y-70425000D03*
X56450000Y-72075000D03*
%TD*%
D21*
%TO.C,J4*%
X54078949Y-68171051D03*
D22*
X54976975Y-67273025D03*
X55875000Y-66375000D03*
%TD*%
D23*
%TO.C,C6*%
X61175000Y-78550000D03*
X59745000Y-78550000D03*
%TD*%
D24*
%TO.C,J3*%
X59445001Y-62425000D03*
D25*
X61985001Y-62425000D03*
X64525000Y-62425000D03*
X67065001Y-62425000D03*
%TD*%
D26*
%TO.C,C11*%
X81625000Y-83000000D03*
X81625000Y-82040000D03*
%TD*%
%TO.C,C9*%
X61625000Y-76605000D03*
X61625000Y-75645000D03*
%TD*%
D27*
%TO.C,U1*%
X63462500Y-72375000D03*
X63462500Y-72875000D03*
X63462500Y-73375000D03*
X63462500Y-73875000D03*
X63462500Y-74375000D03*
X63462500Y-74875000D03*
X63462500Y-75375000D03*
X63462500Y-75875000D03*
X63462500Y-76375000D03*
X63462500Y-76875000D03*
X63462500Y-77375000D03*
X63462500Y-77875000D03*
D28*
X64875000Y-79287500D03*
X65375000Y-79287500D03*
X65875000Y-79287500D03*
X66375000Y-79287500D03*
X66875000Y-79287500D03*
X67375000Y-79287500D03*
X67875000Y-79287500D03*
X68375000Y-79287500D03*
X68875000Y-79287500D03*
X69375000Y-79287500D03*
X69875000Y-79287500D03*
X70375000Y-79287500D03*
D27*
X71787500Y-77875000D03*
X71787500Y-77375000D03*
X71787500Y-76875000D03*
X71787500Y-76375000D03*
X71787500Y-75875000D03*
X71787500Y-75375000D03*
X71787500Y-74875000D03*
X71787500Y-74375000D03*
X71787500Y-73875000D03*
X71787500Y-73375000D03*
X71787500Y-72875000D03*
X71787500Y-72375000D03*
D28*
X70375000Y-70962500D03*
X69875000Y-70962500D03*
X69375000Y-70962500D03*
X68875000Y-70962500D03*
X68375000Y-70962500D03*
X67875000Y-70962500D03*
X67375000Y-70962500D03*
X66875000Y-70962500D03*
X66375000Y-70962500D03*
X65875000Y-70962500D03*
X65375000Y-70962500D03*
X64875000Y-70962500D03*
%TD*%
D24*
%TO.C,J2*%
X70185000Y-87625000D03*
D25*
X67645000Y-87625000D03*
X65105001Y-87625000D03*
X62565000Y-87625000D03*
%TD*%
D15*
%TO.C,C3*%
X73625000Y-72145000D03*
X73625000Y-73105000D03*
%TD*%
D12*
%TO.C,H2*%
X83150000Y-89400000D03*
%TD*%
D13*
%TO.C,C13*%
X56467947Y-77467947D03*
X55782053Y-76782053D03*
%TD*%
D29*
%TO.C,Y1*%
X57819365Y-76430635D03*
X59375000Y-74875000D03*
X58172919Y-73672919D03*
X56617284Y-75228554D03*
%TD*%
D12*
%TO.C,H1*%
X83550000Y-63000000D03*
%TD*%
D30*
%TO.C,U2*%
X79675000Y-78854999D03*
X77375000Y-78855000D03*
D31*
X77375000Y-85154998D03*
D30*
X75075000Y-78854999D03*
%TD*%
D16*
%TO.C,C10*%
X72900000Y-83065000D03*
X72900000Y-81635000D03*
%TD*%
D32*
%TO.C,R6*%
X65115001Y-65475000D03*
X66134999Y-65475000D03*
%TD*%
D33*
%TO.C,J1*%
X82290000Y-75175000D03*
X82290001Y-74525000D03*
X82290000Y-73875000D03*
X82290001Y-73225000D03*
X82290000Y-72575000D03*
D34*
X84950001Y-77250000D03*
D35*
X82375000Y-76362500D03*
D36*
X84950000Y-75025000D03*
D37*
X84950001Y-72325000D03*
D35*
X82375000Y-71387500D03*
D34*
X84950001Y-70500000D03*
%TD*%
D38*
%TO.C,C5*%
X64645000Y-69125000D03*
X65605000Y-69125000D03*
%TD*%
D10*
%TO.C,D1*%
X70375000Y-65710000D03*
X70375000Y-66350000D03*
%TD*%
D24*
%TO.C,J5*%
X78465000Y-62450000D03*
D25*
X75925000Y-62450000D03*
X73385001Y-62450000D03*
X70845000Y-62450000D03*
%TD*%
D12*
%TO.C,H4*%
X52875000Y-88625000D03*
%TD*%
D39*
%TO.C,R1*%
X76875000Y-72690001D03*
X76875000Y-73709999D03*
%TD*%
D38*
%TO.C,C8*%
X76665000Y-76855000D03*
X77625000Y-76855000D03*
%TD*%
M02*
